<?xml version="1.0" encoding="UTF-8"?>
<svg width="293px" height="494px" viewBox="0 0 293 494" version="1.1" xmlns="http://www.w3.org/2000/svg" xmlns:xlink="http://www.w3.org/1999/xlink">
    <!-- Generator: Sketch 60.1 (88133) - https://sketch.com -->
    <title>Fill 1 Copy 3</title>
    <desc>Created with Sketch.</desc>
    <defs>
        <rect id="path-1" x="0" y="5.68434189e-14" width="521" height="329"></rect>
    </defs>
    <g id="Designs" stroke="none" stroke-width="1" fill="none" fill-rule="evenodd">
        <g id="About_Master" transform="translate(-1227.000000, -3771.000000)">
            <g id="Fill-1-Copy-3" transform="translate(1391.500000, 4031.500000) scale(-1, 1) rotate(-90.000000) translate(-1391.500000, -4031.500000) translate(1131.000000, 3867.000000)">
                <mask id="mask-2" fill="white">
                    <use xlink:href="#path-1"></use>
                </mask>
                <g id="Mask"></g>
                <path d="M514.168,36 L512.391,37.052 L521.03,45.69 L521.03,42.862 L514.168,36 Z M502.292,43.033 L521.03,61.771 L521.03,58.943 L504.068,41.981 L502.292,43.033 Z M492.193,49.013 L521.03,77.851 L521.03,75.022 L493.968,47.961 L492.193,49.013 Z M482.092,54.995 L521.03,93.932 L521.03,91.103 L483.869,53.942 L482.092,54.995 Z M471.992,60.975 L521.03,110.012 L521.03,107.184 L473.769,59.922 L471.992,60.975 Z M461.892,66.955 L521.03,126.093 L521.03,123.264 L463.669,65.903 L461.892,66.955 Z M451.793,72.935 L521.03,142.173 L521.03,139.345 L453.569,71.884 L451.793,72.935 Z M441.693,78.916 L521.03,158.253 L521.03,155.425 L443.469,77.864 L441.693,78.916 Z M431.593,84.896 L521.03,174.334 L521.03,171.506 L433.37,83.845 L431.593,84.896 Z M421.493,90.877 L521.03,190.414 L521.03,187.586 L423.27,89.825 L421.493,90.877 Z M411.393,96.858 L521.03,206.495 L521.03,203.667 L413.17,95.807 L411.393,96.858 Z M401.293,102.839 L521.03,222.575 L521.03,219.747 L403.069,101.787 L401.293,102.839 Z M391.194,108.819 L521.03,238.656 L521.03,235.827 L392.97,107.768 L391.194,108.819 Z M381.094,114.799 L521.03,254.736 L521.03,251.908 L382.871,113.748 L381.094,114.799 Z M370.993,120.78 L521.03,270.817 L521.03,267.988 L372.771,119.729 L370.993,120.78 Z M360.894,126.761 L521.03,286.897 L521.03,284.07 L362.67,125.709 L360.894,126.761 Z M350.794,132.742 L521.03,302.978 L521.03,300.149 L352.57,131.69 L350.794,132.742 Z M340.695,138.722 L521.03,319.059 L521.03,316.229 L342.471,137.67 L340.695,138.722 Z M330.594,144.703 L521.03,335.138 L521.03,332.311 L332.37,143.652 L330.594,144.703 Z M320.494,150.683 L521.03,351.22 L521.03,348.391 L322.271,149.632 L320.494,150.683 Z M310.395,156.664 L521.03,367.3 L521.03,364.472 L312.171,155.613 L310.395,156.664 Z M300.295,162.644 L521.03,383.38 L521.03,380.552 L302.071,161.592 L300.295,162.644 Z M290.194,168.625 L521.03,399.461 L521.03,396.632 L291.971,167.573 L290.194,168.625 Z M280.095,174.606 L521.03,415.541 L521.03,412.713 L281.871,173.554 L280.095,174.606 Z M269.995,180.587 L521.03,431.622 L521.03,428.793 L271.772,179.535 L269.995,180.587 Z M259.895,186.567 L521.03,447.702 L521.03,444.875 L261.672,185.515 L259.895,186.567 Z M249.795,192.548 L521.03,463.783 L521.03,460.954 L251.571,191.496 L249.795,192.548 Z M239.695,198.528 L521.03,479.863 L521.03,477.035 L241.472,197.476 L239.695,198.528 Z M229.596,204.51 L521.03,495.943 L521.03,493.115 L231.372,203.457 L229.596,204.51 Z M219.495,210.49 L521.03,512.024 L521.03,509.197 L221.273,209.437 L219.495,210.49 Z M209.396,216.471 L521.03,528.105 L521.03,525.276 L211.172,215.418 L209.396,216.471 Z M199.296,222.451 L521.03,544.186 L521.03,541.356 L201.072,221.399 L199.296,222.451 Z M189.196,228.432 L521.03,560.265 L521.03,557.437 L190.973,227.38 L189.196,228.432 Z M179.096,234.412 L521.03,576.346 L521.03,573.518 L180.872,233.36 L179.096,234.412 Z M168.996,240.393 L521.03,592.427 L521.03,589.599 L170.772,239.341 L168.996,240.393 Z M158.897,246.373 L521.03,608.507 L521.03,605.678 L160.673,245.321 L158.897,246.373 Z M148.797,252.355 L521.03,624.588 L521.03,621.759 L150.573,251.302 L148.797,252.355 Z M138.696,258.335 L521.03,640.668 L521.03,637.84 L140.473,257.283 L138.696,258.335 Z M128.596,264.316 L521.03,656.749 L521.03,653.92 L130.373,263.263 L128.596,264.316 Z M118.497,270.296 L521.03,672.829 L521.03,670.001 L120.273,269.244 L118.497,270.296 Z M108.397,276.277 L521.03,688.909 L521.03,686.081 L110.174,275.224 L108.397,276.277 Z M98.297,282.258 L507.522,691.483 L514.457,695.589 L514.457,695.589 L100.074,281.205 L98.297,282.258 Z M88.197,288.238 L468.095,668.136 L475.031,672.242 L89.974,287.185 L88.197,288.238 Z M78.097,294.219 L428.668,644.789 L435.603,648.896 L79.874,293.167 L78.097,294.219 Z M67.998,300.199 L389.24,621.442 L396.176,625.549 L69.774,299.147 L67.998,300.199 Z M57.898,306.18 L349.814,598.096 L356.748,602.202 L59.674,305.128 L57.898,306.18 Z M47.798,312.16 L310.386,574.748 L317.32,578.856 L49.575,311.108 L47.798,312.16 Z M37.698,318.141 L270.958,551.401 L277.894,555.508 L39.475,317.089 L37.698,318.141 Z M27.597,324.122 L231.531,528.054 L238.466,532.161 L29.374,323.07 L27.597,324.122 Z M17.499,330.103 L192.104,504.708 L199.038,508.814 L19.274,329.051 L17.499,330.103 Z M7.399,336.083 L152.676,481.361 L159.611,485.468 L9.175,335.031 L7.399,336.083 Z M-2.701,342.063 L113.25,458.014 L120.184,462.121 L-0.924,341.012 L-2.701,342.063 Z M-12.802,348.043 L73.821,434.667 L80.757,438.773 L-11.025,346.992 L-12.802,348.043 Z M-22.902,354.024 L34.394,411.321 L41.33,415.427 L-21.125,352.973 L-22.902,354.024 Z M-33,360.005 L-5.033,387.974 L1.902,392.08 L-31.225,358.953 L-33,360.005 Z" id="Fill-1" fill="#CBE1E1" mask="url(#mask-2)"></path>
            </g>
        </g>
    </g>
</svg>