<?xml version="1.0" encoding="UTF-8"?>
<svg width="686px" height="655px" viewBox="0 0 686 655" version="1.1" xmlns="http://www.w3.org/2000/svg" xmlns:xlink="http://www.w3.org/1999/xlink">
    <!-- Generator: Sketch 61 (89581) - https://sketch.com -->
    <title>Group 33</title>
    <desc>Created with Sketch.</desc>
    <g id="Designs" stroke="none" stroke-width="1" fill="none" fill-rule="evenodd">
        <g id="Solutions_Bus-&amp;-Coach_V2" transform="translate(-1234.000000, -1855.000000)">
            <g id="Group-33" transform="translate(1234.000000, 1855.000000)">
                <path d="M1,0 L686,0 L686,0 L686,655 L100,655 C44.771525,655 6.76353751e-15,610.228475 0,555 L0,1 C-6.76353751e-17,0.44771525 0.44771525,1.01453063e-16 1,0 Z" id="Rectangle-Copy" fill="#E7F3F3"></path>
                <g id="Group-22-Copy" fill="#B2D3D3">
                    <polygon id="Fill-1" points="0 164.7094 3.12 167.8004 5.96 167.8004 0 161.8994"></polygon>
                    <polygon id="Fill-2" points="0 148.8298 19.16 167.7998 22 167.7998 0 146.0198"></polygon>
                    <polygon id="Fill-3" points="0 132.9502 35.2 167.8002 38.05 167.8002 0 130.1302"></polygon>
                    <polygon id="Fill-4" points="0 117.0697 51.241 167.7997 54.09 167.7997 0 114.2597"></polygon>
                    <polygon id="Fill-5" points="0 101.1901 67.28 167.8001 70.13 167.8001 0 98.3801"></polygon>
                    <polygon id="Fill-6" points="0 85.3105 83.32 167.8005 86.17 167.8005 0 82.4995"></polygon>
                    <polygon id="Fill-7" points="0 69.43 99.359 167.8 102.21 167.8 0 66.61"></polygon>
                    <polygon id="Fill-8" points="0 53.5396 115.411 167.7996 118.25 167.7996 0 50.7296"></polygon>
                    <polygon id="Fill-9" points="0 37.6708 131.45 167.7998 134.29 167.7998 0 34.8498"></polygon>
                    <polygon id="Fill-10" points="0 21.7903 147.49 167.8003 150.34 167.8003 0 18.9693"></polygon>
                    <polygon id="Fill-11" points="0 5.8999 163.53 167.7999 166.38 167.7999 0 3.0899"></polygon>
                    <polygon id="Fill-12" points="10.08 0.0004 167.8 156.1404 167.8 153.3294 12.919 0.0004"></polygon>
                    <polygon id="Fill-13" points="26.1198 0.0004 167.7998 140.2604 167.7998 137.4504 28.9698 0.0004"></polygon>
                    <polygon id="Fill-14" points="42.1605 0.0004 167.7995 124.3804 167.7995 121.5694 45.0095 0.0004"></polygon>
                    <polygon id="Fill-15" points="58.2003 0.0004 167.7993 108.4994 167.7993 105.6904 61.0493 0.0004"></polygon>
                    <polygon id="Fill-16" points="74.2401 0.0004 167.7991 92.6194 167.7991 89.8004 77.0891 0.0004"></polygon>
                    <polygon id="Fill-17" points="90.2799 0.0004 167.7999 76.7394 167.7999 73.9204 93.1299 0.0004"></polygon>
                    <polygon id="Fill-18" points="106.3305 0.0004 167.7995 60.8504 167.7995 58.0394 109.1695 0.0004"></polygon>
                    <polygon id="Fill-19" points="122.3703 0.0004 167.7993 44.9704 167.7993 42.1704 125.2103 0.0004"></polygon>
                    <polygon id="Fill-20" points="138.4101 0.0004 167.7991 29.1004 167.7991 26.2794 141.2591 0.0004"></polygon>
                    <polygon id="Fill-21" points="154.4499 0.0004 167.7999 13.2094 167.7999 10.3994 157.2999 0.0004"></polygon>
                </g>
            </g>
        </g>
    </g>
</svg>