<svg height="655" viewBox="0 0 685 655" width="685" xmlns="http://www.w3.org/2000/svg"><g fill="none" fill-rule="evenodd" transform="translate(-1)"><path d="m0 0h686v555c0 55.228475-44.771525 100-100 100h-586z" fill="#e7f3f3"/><g fill="#b2d3d3" transform="translate(518)"><path d="m0 164.7094 3.12 3.091h2.84l-5.96-5.901z"/><path d="m0 148.8298 19.16 18.97h2.84l-22-21.78z"/><path d="m0 132.9502 35.2 34.85h2.85l-38.05-37.67z"/><path d="m0 117.0697 51.241 50.73h2.849l-54.09-53.54z"/><path d="m0 101.1901 67.28 66.61h2.85l-70.13-69.42z"/><path d="m0 85.3105 83.32 82.49h2.85l-86.17-85.301z"/><path d="m0 69.43 99.359 98.37h2.851l-102.21-101.19z"/><path d="m0 53.5396 115.411 114.26h2.839l-118.25-117.07z"/><path d="m0 37.6708 131.45 130.129h2.84l-134.29-132.95z"/><path d="m0 21.7903 147.49 146.01h2.85l-150.34-148.831z"/><path d="m0 5.8999 163.53 161.9h2.85l-166.38-164.71z"/><path d="m10.08.0004 157.72 156.14v-2.811l-154.881-153.329z"/><path d="m26.1198.0004 141.68 140.26v-2.81l-138.83-137.45z"/><path d="m42.1605.0004 125.639 124.38v-2.811l-122.79-121.569z"/><path d="m58.2003.0004 109.599 108.499v-2.809l-106.75-105.69z"/><path d="m74.2401.0004 93.559 92.619v-2.819l-90.71-89.8z"/><path d="m90.2799.0004 77.52 76.739v-2.819l-74.67-73.92z"/><path d="m106.3305.0004 61.469 60.85v-2.811l-58.63-58.039z"/><path d="m122.3703.0004 45.429 44.97v-2.8l-42.589-42.17z"/><path d="m138.4101.0004 29.389 29.1v-2.821l-26.54-26.279z"/><path d="m154.4499.0004 13.35 13.209v-2.81l-10.5-10.399z"/></g></g></svg>