<svg xmlns="http://www.w3.org/2000/svg" xmlns:xlink="http://www.w3.org/1999/xlink" width="495" height="252" viewBox="0 0 495 252">
    <defs>
        <path id="a" d="M0 0h720v282H0z"/>
    </defs>
    <g fill="none" fill-rule="evenodd" transform="translate(-120 -30)">
        <mask id="b" fill="#fff">
            <use xlink:href="#a"/>
        </mask>
        <path fill="#E2ECF8" d="M607.168 30.857l-1.777.902 8.639 7.404v-2.424l-6.862-5.882zm-11.876 6.028l18.738 16.062v-2.424l-16.962-14.54-1.776.902zm-10.099 5.126L614.03 66.73v-2.424l-27.062-23.196-1.775.902zm-10.101 5.128l38.938 33.374v-2.425l-37.161-31.852-1.777.903zm-10.1 5.125l49.038 42.032v-2.424l-47.261-40.51-1.777.902zm-10.1 5.126l59.138 50.69v-2.425l-57.361-49.167-1.777.902zm-10.099 5.126l69.237 59.347v-2.424l-67.461-57.824-1.776.9zm-10.1 5.126l79.337 68.003v-2.424l-77.561-66.48-1.776.901zm-10.1 5.126l89.437 76.661v-2.424l-87.66-75.138-1.777.901zm-10.1 5.127l99.537 85.317v-2.424l-97.76-83.795-1.777.902zm-10.1 5.126l109.637 93.975v-2.424L506.17 82.12l-1.777.901zm-10.1 5.127l119.737 102.63v-2.423L496.069 87.246l-1.776.902zm-10.099 5.125l129.836 111.29v-2.426L485.97 92.373l-1.776.9zm-10.1 5.126L614.03 218.345v-2.424L475.871 97.498l-1.777.901zm-10.101 5.127L614.03 232.129v-2.425l-148.259-127.08-1.778.902zm-10.099 5.126l160.136 137.26v-2.423L455.67 107.75l-1.776.901zm-10.1 5.127L614.03 259.695v-2.424L445.57 112.877l-1.776.902zm-10.099 5.126L614.03 273.479v-2.426l-178.559-153.05-1.776.902zm-10.101 5.126l190.436 163.23v-2.423L425.37 123.13l-1.776.901zm-10.1 5.126L614.03 301.046v-2.425L415.271 128.256l-1.777.9zm-10.099 5.126L614.03 314.83v-2.424L405.171 133.383l-1.776.9zm-10.1 5.126L614.03 328.611v-2.424l-218.959-187.68-1.776.902zm-10.101 5.127l230.836 197.86v-2.426L384.971 143.634l-1.777.902zm-10.099 5.126L614.03 356.178v-2.424L374.871 148.761l-1.776.901zm-10.1 5.127L614.03 369.962v-2.425l-249.258-213.65-1.777.902zm-10.1 5.126l261.135 223.83v-2.424L354.672 159.013l-1.777.902zm-10.1 5.126L614.03 397.528v-2.425L344.571 164.14l-1.776.902zm-10.1 5.126L614.03 411.31v-2.424L334.472 169.265l-1.777.902zm-10.099 5.127l291.434 249.8v-2.424L324.372 174.392l-1.776.902zm-10.101 5.126L614.03 438.878v-2.423L314.273 179.517l-1.778.903zm-10.099 5.127L614.03 452.66v-2.424L304.172 184.644l-1.776.903zm-10.1 5.125L614.03 466.445v-2.426L294.072 189.771l-1.776.901zm-10.1 5.127L614.03 480.227v-2.424L283.973 194.897l-1.777.902zm-10.1 5.126L614.03 494.01v-2.424L273.872 200.023l-1.776.902zm-10.1 5.126L614.03 507.795v-2.424L263.772 205.149l-1.776.902zm-10.099 5.126l362.133 310.4v-2.424L253.673 210.275l-1.776.902zm-10.1 5.127L614.03 535.361v-2.425L243.573 215.402l-1.776.902zm-10.101 5.126L614.03 549.144v-2.424L233.473 220.528l-1.777.902zm-10.1 5.127l392.434 336.37v-2.424L223.373 225.654l-1.777.903zm-10.099 5.125L614.03 576.711v-2.424L213.273 230.78l-1.776.901zm-10.1 5.127L614.03 590.493v-2.424L203.174 235.906l-1.777.903zm-10.1 5.126L600.522 592.7l6.935 3.52-414.383-355.187-1.777.902zm-10.1 5.126l379.898 325.627 6.936 3.52-385.057-330.05-1.777.903zm-10.1 5.127l350.571 300.488 6.935 3.52-355.729-304.91-1.777.902zm-10.099 5.125L482.24 532.665l6.936 3.52-326.402-279.773-1.776.901zm-10.1 5.127l291.916 250.214 6.934 3.52-297.074-254.636-1.776.902zm-10.1 5.126L403.386 492.64l6.934 3.521-267.745-229.498-1.777.902zm-10.1 5.126l233.26 199.937 6.936 3.52-238.419-204.358-1.777.901zm-10.101 5.127l203.934 174.799 6.935 3.52-209.092-179.22-1.777.9zm-10.098 5.126l174.605 149.662 6.934 3.52-179.764-154.083-1.775.901zm-10.1 5.126l145.277 124.524 6.935 3.52L102.175 287.17l-1.776.902zm-10.1 5.126l115.951 99.386 6.934 3.52L92.076 292.297l-1.777.9zm-10.101 5.126l86.623 74.249 6.936 3.52-91.782-78.67-1.777.9zm-10.1 5.126l57.296 49.112 6.936 3.52-62.455-53.533-1.777.901zM60 308.576l27.967 23.973 6.935 3.52-33.127-28.395-1.775.902z" mask="url(#b)"/>
    </g>
</svg>
