<?xml version="1.0" encoding="utf-8"?>
<svg version="1.1" xmlns="http://www.w3.org/2000/svg" xmlns:xlink="http://www.w3.org/1999/xlink" x="0px" y="0px"
	 viewBox="0 0 325 256" style="enable-background:new 0 0 325 256;" xml:space="preserve">
<style>
	.background {
		animation-name: fade;
		animation-duration: 3s;
		animation-iteration: 1;
	}

	#Red_line{
		animation: shoot 0.5s 1.5s ease both;
	}

	#Yellow_line{
		animation: shoot 0.5s 1s ease both;
	}

	#Green_line{
		animation: shoot 0.5s 0s ease both;
	}

	#Blue_line{
		animation: shoot 0.5s 0.5s ease both;
	}

	@keyframes shoot {
	0% {transform: translateZ(0) translate(-400px, 400px); opacity: 0;}
	100% {transform: translateZ(0) translate(0px, 0px); opacity: 1;}
	}

	@keyframes fade {
	0% {opacity: 0;}
	100% {opacity: 1;}
	}
</style>
<g id="thin_lines">
	<g>
		<g>
			<path style="fill:#272930;" d="M201.8,57.7l-1.3-1.3l-1.3,1.3L0.7,256h2.6L200.5,59L325,183.5v-2.6L201.8,57.7z M202.6,76.7l-2-2
				L19.1,256h2.6L200.6,77.2L325,201.7V199L202.6,76.7z M202.6,94.9l-0.7-0.6l-1.3-1.3l-1.3,1.3l-0.7,0.7L37.5,256h2.6L200.7,95.5
				L325,219.9v-2.6L202.6,94.9z M204,114.4l-2.8-2.8l-0.4-0.5l-2.5,2.5L55.8,256h2.6l142.3-142.2L325,238.1v-2.6L204,114.4z
				 M200.9,147.7l-1.3,1.3l-107,107h2.6l105.7-105.6L306.5,256h2.6L200.9,147.7z M201,166l-1.3,1.3l1.3,1.3l87.3,87.3h2.6L201,166z
				 M200.5,184.8l-0.8,0.8L129.3,256h2.6l69.1-69.1l69.1,69.1h2.6L201,184.3L200.5,184.8z M199.8,203.9l-2.2,2.1l-50,50h2.6
				l50.8-50.8l50.8,50.8h2.6l-53.4-53.4L199.8,203.9z M202.5,222.2l-1.3-1.3l-1.3,1.3L166,256h2.6l4.7-4.7l0,0l0.2,0.2l4.5,4.5h2.6
				l-5.8-5.8l-0.2-0.1l0,0l7.8-7.8l13.8,13.8h2.6l-15.1-15.1l7.8-7.8l22.9,22.9h2.6l-24.2-24.2l8.3-8.3l32.5,32.5h2.6l-30.5-30.5
				L202.5,222.2z M325,253.6L200.8,129.4l-0.4,0.4l-1,1L74.2,256h2.6l124-123.9L324.7,256l0.3,0.3V256"/>
			<polygon style="fill:#272930;" points="200.7,92.9 200.7,92.9 202,94.2 			"/>
			<polygon style="fill:#272930;" points="201,168.6 113.6,256 110.9,256 199.7,167.3 			"/>
		</g>
		<line style="fill:none;" x1="201.2" y1="111.6" x2="202.1" y2="112.5"/>
	</g>
	<line style="fill-rule:evenodd;clip-rule:evenodd;fill:#272930;" x1="325" y1="256" x2="325" y2="253.6"/>
	<polygon style="fill-rule:evenodd;clip-rule:evenodd;fill:#272930;" points="325,256 325,256.3 324.7,256 	"/>
</g>
<g id="Gradient_Lines">
	<linearGradient id="SVGID_1_" gradientUnits="userSpaceOnUse" x1="210.6139" y1="205.9058" x2="139.1209" y2="278.6987">
		<stop  offset="0" style="stop-color:#FF7A72"/>
		<stop  offset="0.3798" style="stop-color:#FD7971;stop-opacity:0.6202"/>
		<stop  offset="0.5166" style="stop-color:#F6766F;stop-opacity:0.4834"/>
		<stop  offset="0.6141" style="stop-color:#EB726B;stop-opacity:0.3859"/>
		<stop  offset="0.693" style="stop-color:#DA6B65;stop-opacity:0.307"/>
		<stop  offset="0.7606" style="stop-color:#C4625E;stop-opacity:0.2394"/>
		<stop  offset="0.8204" style="stop-color:#A85755;stop-opacity:0.1796"/>
		<stop  offset="0.8745" style="stop-color:#884949;stop-opacity:0.1255"/>
		<stop  offset="0.9242" style="stop-color:#623A3D;stop-opacity:7.576323e-02"/>
		<stop  offset="0.9685" style="stop-color:#39292F;stop-opacity:3.151780e-02"/>
		<stop  offset="1" style="stop-color:#171B23;stop-opacity:0"/>
	</linearGradient>
	<path id="Red_line" style="fill-rule:evenodd;clip-rule:evenodd;fill:url(#SVGID_1_);" d="M212,210.4v0.2c0,1.4-0.5,2.8-1.6,3.8l-41.9,41.9H153
		l49.6-49.7c1.1-1.1,2.4-1.6,3.8-1.6h0.1c1.4,0,2.8,0.5,3.8,1.6C211.5,207.7,212,209,212,210.4z"/>
	<linearGradient id="SVGID_2_" gradientUnits="userSpaceOnUse" x1="260.7673" y1="104.2883" x2="76.1853" y2="281.071">
		<stop  offset="0" style="stop-color:#FFA43E"/>
		<stop  offset="0.3798" style="stop-color:#FDA33E;stop-opacity:0.6202"/>
		<stop  offset="0.5166" style="stop-color:#F69F3D;stop-opacity:0.4834"/>
		<stop  offset="0.6141" style="stop-color:#EB983C;stop-opacity:0.3859"/>
		<stop  offset="0.693" style="stop-color:#DA8E3A;stop-opacity:0.307"/>
		<stop  offset="0.7606" style="stop-color:#C48137;stop-opacity:0.2394"/>
		<stop  offset="0.8204" style="stop-color:#A87134;stop-opacity:0.1796"/>
		<stop  offset="0.8745" style="stop-color:#885E30;stop-opacity:0.1255"/>
		<stop  offset="0.9242" style="stop-color:#62472C;stop-opacity:7.576323e-02"/>
		<stop  offset="0.9685" style="stop-color:#392F27;stop-opacity:3.151780e-02"/>
		<stop  offset="1" style="stop-color:#171B23;stop-opacity:0"/>
	</linearGradient>
	<path id="Yellow_line" style="fill-rule:evenodd;clip-rule:evenodd;fill:url(#SVGID_2_);" d="M269.9,97.4v0.2c0,1.4-0.5,2.8-1.6,3.8L113.5,256.3
		H97.9L260.6,93.6c1.1-1.1,2.5-1.6,3.8-1.6h0.1c1.4,0,2.8,0.5,3.8,1.6C269.4,94.7,269.9,96,269.9,97.4z"/>
	<linearGradient id="SVGID_3_" gradientUnits="userSpaceOnUse" x1="-336.27" y1="661.9998" x2="-336.27" y2="641.5447">
		<stop  offset="0" style="stop-color:#58C4FC"/>
		<stop  offset="1" style="stop-color:#171B23;stop-opacity:0"/>
	</linearGradient>
	<polygon style="fill-rule:evenodd;clip-rule:evenodd;fill:url(#SVGID_3_);" points="-337,640.2 -321.5,640.2 -343.3,662 
		-351.1,654.2 	"/>
	<linearGradient id="SVGID_4_" gradientUnits="userSpaceOnUse" x1="174.4714" y1="135.9049" x2="41.2955" y2="270.4126">
		<stop  offset="0" style="stop-color:#58C4FC"/>
		<stop  offset="0.3387" style="stop-color:#57C2FA;stop-opacity:0.6613"/>
		<stop  offset="0.4807" style="stop-color:#55BDF3;stop-opacity:0.5193"/>
		<stop  offset="0.586" style="stop-color:#52B3E6;stop-opacity:0.414"/>
		<stop  offset="0.673" style="stop-color:#4CA5D5;stop-opacity:0.327"/>
		<stop  offset="0.7488" style="stop-color:#4594BE;stop-opacity:0.2512"/>
		<stop  offset="0.8169" style="stop-color:#3D7DA1;stop-opacity:0.1831"/>
		<stop  offset="0.8791" style="stop-color:#336380;stop-opacity:0.1209"/>
		<stop  offset="0.9367" style="stop-color:#274558;stop-opacity:6.330460e-02"/>
		<stop  offset="0.9886" style="stop-color:#1A232D;stop-opacity:1.136953e-02"/>
		<stop  offset="1" style="stop-color:#171B23;stop-opacity:0"/>
	</linearGradient>
	<path id="Blue_line" style="fill-rule:evenodd;clip-rule:evenodd;fill:url(#SVGID_4_);" d="M190.9,125.4v0.2c0,1.4-0.5,2.8-1.6,3.8L62.5,256.3
		H46.9l134.7-134.7c1.1-1.1,2.5-1.6,3.8-1.6h0.1c1.4,0,2.8,0.5,3.8,1.6C190.4,122.7,190.9,124,190.9,125.4z"/>
	<linearGradient id="SVGID_5_" gradientUnits="userSpaceOnUse" x1="254.5384" y1="10.6111" x2="5.4994" y2="257.4305">
		<stop  offset="0" style="stop-color:#9BDC50"/>
		<stop  offset="0.3941" style="stop-color:#9ADA50;stop-opacity:0.6059"/>
		<stop  offset="0.536" style="stop-color:#95D34E;stop-opacity:0.464"/>
		<stop  offset="0.6373" style="stop-color:#8DC84B;stop-opacity:0.3627"/>
		<stop  offset="0.7191" style="stop-color:#81B747;stop-opacity:0.2809"/>
		<stop  offset="0.7893" style="stop-color:#72A142;stop-opacity:0.2107"/>
		<stop  offset="0.8513" style="stop-color:#60853C;stop-opacity:0.1487"/>
		<stop  offset="0.9074" style="stop-color:#4A6534;stop-opacity:9.257531e-02"/>
		<stop  offset="0.9573" style="stop-color:#31412C;stop-opacity:4.268610e-02"/>
		<stop  offset="1" style="stop-color:#171B23;stop-opacity:0"/>
	</linearGradient>
	<path id="Green_line" style="fill-rule:evenodd;clip-rule:evenodd;fill:url(#SVGID_5_);" d="M263.9,5.6v0.2c0,1.4-0.5,2.8-1.6,3.8L15.6,256.3H0.1
		L254.6,1.8c1.1-1.1,2.5-1.6,3.8-1.6h0.1c1.4,0,2.8,0.5,3.8,1.6C263.4,2.8,263.9,4.2,263.9,5.6z"/>
</g>
</svg>
