<?xml version="1.0" encoding="UTF-8"?>
<svg width="517px" height="514px" viewBox="0 0 517 514" version="1.1" xmlns="http://www.w3.org/2000/svg" xmlns:xlink="http://www.w3.org/1999/xlink">
    <!-- Generator: Sketch 61 (89581) - https://sketch.com -->
    <title>Background Circles Copy 2</title>
    <desc>Created with Sketch.</desc>
    <defs>
        <rect id="path-1" x="-7.95807864e-13" y="0.381410256" width="546" height="542"></rect>
    </defs>
    <g id="Designs" stroke="none" stroke-width="1" fill="none" fill-rule="evenodd">
        <g id="Solutions_Bus-&amp;-Coach_V2" transform="translate(0.000000, -3329.000000)">
            <g id="Background-Circles-Copy-2" transform="translate(273.000000, 3600.500000) rotate(-360.000000) translate(-273.000000, -3600.500000) translate(0.000000, 3329.000000)">
                <mask id="mask-2" fill="white">
                    <use xlink:href="#path-1"></use>
                </mask>
                <g id="Mask"></g>
                <g id="Background-Circles" mask="url(#mask-2)" stroke="#EAF1F9" stroke-dasharray="11.929,11.929" stroke-width="2">
                    <g transform="translate(-768.000000, -769.618590)" id="Stroke-1">
                        <path d="M65.4152397,647.5 C65.4152397,968.975783 326.024217,1229.58476 647.5,1229.58476 C968.975783,1229.58476 1229.58476,968.975783 1229.58476,647.5 C1229.58476,326.024217 968.975783,65.4152397 647.5,65.4152397 C326.024217,65.4152397 65.4152397,326.024217 65.4152397,647.5 Z"></path>
                        <path d="M0,647.5 C0,1005.10354 289.896463,1295 647.5,1295 C1005.10354,1295 1295,1005.10354 1295,647.5 C1295,289.896463 1005.10354,0 647.5,0 C289.896463,0 0,289.896463 0,647.5 Z"></path>
                    </g>
                </g>
            </g>
        </g>
    </g>
</svg>