<?xml version="1.0" encoding="UTF-8"?>
<svg width="8px" height="17px" viewBox="0 0 8 17" version="1.1" xmlns="http://www.w3.org/2000/svg" xmlns:xlink="http://www.w3.org/1999/xlink">
    <!-- Generator: Sketch 62 (91390) - https://sketch.com -->
    <title>Fill 12 Copy</title>
    <desc>Created with Sketch.</desc>
    <g id="Symbols" stroke="none" stroke-width="1" fill="none" fill-rule="evenodd">
        <g id="Components/Footer" transform="translate(-1459.000000, -355.000000)" fill="#FFFFFF">
            <path d="M1460.736,363.547 L1460.736,371.747 C1460.736,371.865 1460.832,371.961 1460.949,371.961 L1463.995,371.961 C1464.112,371.961 1464.208,371.865 1464.208,371.747 L1464.208,363.414 L1466.416,363.414 C1466.527,363.414 1466.619,363.329 1466.629,363.218 L1466.841,360.707 C1466.852,360.583 1466.753,360.475 1466.628,360.475 L1464.208,360.475 L1464.208,358.694 C1464.208,358.276 1464.547,357.938 1464.964,357.938 L1466.666,357.938 C1466.783,357.938 1466.879,357.842 1466.879,357.724 L1466.879,355.214 C1466.879,355.095 1466.783,355 1466.666,355 L1463.791,355 C1462.104,355 1460.736,356.368 1460.736,358.055 L1460.736,360.475 L1459.214,360.475 C1459.095,360.475 1459,360.571 1459,360.689 L1459,363.2 C1459,363.318 1459.095,363.414 1459.214,363.414 L1460.736,363.414 L1460.736,363.547 Z" id="Fill-12-Copy"></path>
        </g>
    </g>
</svg>