<svg xmlns="http://www.w3.org/2000/svg" width="34" height="31" viewBox="0 0 34 31">
    <g fill="none" fill-rule="evenodd">
        <path fill="#171B24" d="M15.712 21.564V16.05h-.394c-.423 0-.846-.003-1.269 0-.09.002-.124-.022-.124-.118.003-.737.001-1.473.003-2.21 0-.033.007-.064.013-.108h1.771c0-.18.002-.35 0-.52-.005-.428-.008-.856.114-1.272.306-1.048.915-1.823 1.987-2.169.152-.049.316-.08.475-.083.703-.008 1.406-.003 2.119-.003v2.416c-.045.002-.095.006-.146.006h-1.667c-.35 0-.58.198-.597.547-.016.351-.004.703-.004 1.07h2.414v2.44H18c-.006.045-.014.08-.014.117v5.332c0 .023.005.047.007.07h-2.282z"/>
        <circle cx="17.5" cy="15.5" r="14.5" stroke="#171B24"/>
    </g>
</svg>
