<svg xmlns="http://www.w3.org/2000/svg" xmlns:xlink="http://www.w3.org/1999/xlink" width="1140" height="665" viewBox="0 0 1140 665">
    <defs>
        <path id="a" d="M0 0h1140v745H0z"/>
        <linearGradient id="c" x1="50%" x2="50%" y1="0%" y2="94.748%">
            <stop offset="0%" stop-color="#9BDC50"/>
            <stop offset="100%" stop-color="#171B23" stop-opacity="0"/>
        </linearGradient>
        <linearGradient id="d" x1="50%" x2="50%" y1="0%" y2="94.748%">
            <stop offset="0%" stop-color="#FF7A72"/>
            <stop offset="100%" stop-color="#171B23" stop-opacity="0"/>
        </linearGradient>
        <linearGradient id="e" x1="50%" x2="50%" y1="0%" y2="93.787%">
            <stop offset="0%" stop-color="#FFA43E"/>
            <stop offset="100%" stop-color="#171B23" stop-opacity="0"/>
        </linearGradient>
        <linearGradient id="f" x1="50%" x2="50%" y1="0%" y2="93.787%">
            <stop offset="0%" stop-color="#58C4FC"/>
            <stop offset="100%" stop-color="#171B23" stop-opacity="0"/>
        </linearGradient>
    </defs>
    <g fill="none" fill-rule="evenodd">
        <g opacity=".3" transform="translate(0 -80)">
            <mask id="b" fill="#fff">
                <use xlink:href="#a"/>
            </mask>
            <path fill="#4C4D4F" d="M607.111 139l-.004.004 1.314 1.318-1.313 1.311L779.29 313.82l-7.78 7.779-163.669-163.664.661.662-1.319 1.317 163.009 163.004-7.785 7.785-153.825-153.827-1.32 1.319 153.827 153.826-7.782 7.781-144.649-144.647-1.32 1.319 144.649 144.648-7.78 7.78-136.794-136.79-1.319 1.319.962-.961 1.324 1.316-.966.965 135.473 135.471-7.782 7.782-127.613-127.612-1.321 1.318.586.587.736.731-.003.002 126.295 126.294-7.782 7.783-118.436-118.434-1.321 1.319.001.001v-.001l1.319 1.319h-.001l117.119 117.114-7.785 7.785-109.255-109.261-.795.796.243-.242 1.319 1.318-.768.767 107.939 107.939-7.783 7.783-98.76-98.761-1.319 1.318 98.759 98.763-7.78 7.78-89.585-89.581-1.319 1.318 89.582 89.584-8.329 8.33-89.584-89.589-1.32 1.32 89.586 89.587-7.781 7.78-89.591-89.587-1.321 1.319 89.592 89.589-7.782 7.781-89.585-89.58-1.318 1.318 89.582 89.584-7.782 7.781-89.583-89.585-1.321 1.319 89.586 89.584-7.783 7.784-89.597-89.601-1.321 1.319 89.6 89.6-7.783 7.782-89.581-89.582-1.32 1.321 89.581 89.581-7.781 7.781-89.582-89.58-1.319 1.318 89.581 89.582-7.782 7.782-89.58-89.58-1.321 1.319 89.581 89.581-7.782 7.782-89.612-89.612-1.319 1.318 89.613 89.612-7.782 7.782.74.74-.74.739.582.58 174.234-174.235-1.317-1.321-.024.024L607.111 139zm-.003 0L-134 879.575v2.641l741.108-740.583-1.315-1.314 1.315-1.319zM-134 897.93v2.641l741.183-740.657-.782-.783 1.318-1.318.122.122-.657-.66L-134 897.93zM871.557 568.92l1.319 1.319 393.627-393.88v-2.64L871.557 568.92zM607.261 175.555l1.289 1.288-1.289-1.289v.001zm-.446.445l.446-.445-.001-.001-.445.446zm-.876.873l.001.001.875-.874-.876.873zM-134 916.29v2.636l741.262-740.731-1.322-1.321L-134 916.29zM880.734 578.097l1.328 1.313 384.441-384.695v-2.64L880.734 578.097zm-273.832-383.83l.434-.434.442.442-.442-.442-.434.434zM-134 934.645v2.637l741.338-740.808-1.321-1.321.885-.886L-134 934.645zm742.658-739.49l.001-.001-.881-.879.88.88zm281.256 392.122l1.318 1.317 375.271-375.524v-2.638L889.914 587.277zM-134 953v2.637l741.414-740.886-1.32-1.32L-134 953zM899.091 596.454l1.318 1.318 366.094-366.346v-2.637L899.091 596.454zM-134 971.356v2.637L607.49 233.03l-.733-.733-.588-.585L-134 971.356zM908.269 605.632l1.318 1.318 356.916-357.169v-2.637L908.269 605.632zM-134 989.711v2.64l741.565-741.04-1.318-1.318L-134 989.711zM917.447 614.81l1.318 1.319 347.738-347.992V265.5L917.447 614.81zM-134 1008.066v2.641l741.643-741.119-1.318-1.317.524-.526L-134 1008.066zM926.624 623.988l1.32 1.32 338.559-338.814v-2.639L926.624 623.988zM-134 1026.422v2.639l741.72-741.194-1.318-1.318 1.318-1.319L-134 1026.422zm743.039-739.873l-1.319-1.319 1.319 1.319zm326.763 346.617l1.32 1.319 329.381-329.636v-2.638L935.802 633.166zM-134 1044.78v2.637l650.201-649.741 90.355 90.355.581-.581-.741-.739.741-.74-89.615-89.615 7.784-7.779-1.287-1.288 1.318-1.318 1.288 1.288 35.1-35.075-1.3-1.3 1.319-1.321 1.302 1.302 25.991-25.974-1.31-1.31 1.319-1.32 1.312 1.311 7.786-7.78-.458-.458 1.319-1.321.459.459 8.331-8.325-1.317-1.317 1.318-1.32 1.318 1.319-1.318-1.319L-134 1044.78zM944.979 642.343l1.32 1.32 320.204-320.459v-2.639L944.979 642.343zM606.396 505.067l1.323 1.318 174.234-174.234-1.317-1.321-174.24 174.237zm347.718 146.41l1.318 1.318 311.071-311.236v-2.637L954.114 651.477zM606.401 523.422l1.318 1.319 174.239-174.235-1.322-1.322-174.235 174.238zm0 18.356l1.318 1.318 174.239-174.234-1.322-1.322-174.235 174.238zm0 18.355l1.318 1.319 174.239-174.239-1.322-1.318-174.235 174.238zm0 18.356l1.318 1.318 174.239-174.239-1.322-1.317-174.235 174.238zm0 18.355l1.321 1.319 174.236-174.238-1.319-1.319-174.238 174.238zm0 18.356l1.321 1.318L781.958 442.28l-1.319-1.318L606.401 615.2zm.004 18.352l1.317 1.322 174.236-174.238-1.319-1.319-174.234 174.235zm0 18.359l.766.767-.722.721 174.239 174.239 1.318-1.322-.001-.002-.761.761-1.318-1.318.761-.761L608.32 652.631l7.781-7.781 172.365 172.362 1.319-1.319-172.362-172.364 7.78-7.781 172.364 172.359 1.317-1.318-172.361-172.361 7.783-7.783 172.359 172.359 1.319-1.32-172.358-172.359 7.78-7.78 172.356 172.357 1.32-1.321-172.356-172.356 7.782-7.782 172.354 172.354 1.318-1.319-172.353-172.355 7.781-7.78L833.96 771.695l1.32-1.321-172.352-172.351 7.782-7.783 172.35 172.349 1.319-1.319-172.348-172.35 7.782-7.782 172.345 172.349 1.322-1.323-172.349-172.345 7.782-7.782 172.345 172.345 1.319-1.32-172.344-172.345 8.329-8.328L870.904 734.73l1.319-1.319L699.88 561.07l7.784-7.784 172.34 172.34 1.318-1.319-172.34-172.339 7.783-7.783 172.337 172.338 1.318-1.319-172.335-172.339 7.78-7.78 172.338 172.333 1.319-1.32-172.338-172.333 7.783-7.782L907.3 698.316l1.32-1.321-172.333-172.332 7.783-7.783L916.4 689.211l1.318-1.319-172.33-172.33 7.781-7.782 172.329 172.328 1.322-1.322L754.489 506.46l7.781-7.781 172.326 172.326 1.321-1.322-172.325-172.326 7.78-7.78L943.696 661.9l1.319-1.319-172.323-172.324 7.783-7.783 89.764 89.764 1.318-1.318-89.764-89.765.165-.164-1.319-1.318-174.234 174.238zm263.832-81.671l.111.108-.109-.11-.002.002zm1.344 1.296l-1.233-1.188 82.448 82.448 1.318-1.319-7.815-7.814-1.295 1.296-1.32-1.32 1.295-1.296-7.857-7.858-1.304 1.305-1.311-1.328 1.295-1.296-7.858-7.858-1.284 1.285-1.332-1.309 1.296-1.296-7.859-7.859-1.319-1.319h.001l-7.86-7.86-1.296 1.297-1.318-1.318 1.296-1.297-7.86-7.86-1.296 1.297-1.317-1.318 1.295-1.297-26.215-26.215-1.295 1.297zm82.533 82.578l.047.047 1.317-1.319-.046-.047-1.318 1.319zm-9.099 6.467l1.318 1.318 7.781-7.785-1.318-1.318-7.781 7.785zm-.001 2.637l.045.046 1.32-1.319-.046-.046-1.319 1.319zm-9.097 6.465l1.318 1.318 7.779-7.783-1.318-1.318-7.779 7.783zm-.003 2.64l.042.042 1.322-1.321-.043-.043-1.321 1.322zm-9.094 6.463l1.318 1.318 7.776-7.781-1.318-1.318-7.776 7.781zm-.004 2.64l.042.042 1.322-1.322-.042-.042-1.322 1.322zm-9.098 6.466l1.318 1.319 7.78-7.785-1.318-1.318-7.78 7.784zm0 2.637l.036.037 1.319-1.319-.037-.036-1.318 1.318zm-9.098 6.466l1.318 1.318 7.78-7.784-1.318-1.318-7.78 7.784zm-.002 2.639l.034.035 1.323-1.319-.037-.037-1.32 1.321zm-9.096 6.464l1.318 1.318 7.778-7.782-1.318-1.318-7.778 7.782zm-.001 2.638l.034.034 1.319-1.321-.034-.033-1.319 1.32zm-9.101 6.468l1.318 1.318 7.783-7.786-1.318-1.318-7.783 7.786zm0 2.637l.032.032 1.318-1.319-.032-.032-1.318 1.319zm-9.098 6.466l1.318 1.318 7.78-7.784-1.318-1.318-7.78 7.784zm0 2.637l.028.028 1.319-1.319-.029-.028-1.318 1.319zm-9.099 6.467l1.319 1.318 7.78-7.785-1.318-1.318-7.781 7.785zm0 2.638l.025.025 1.321-1.318-.027-.027-1.319 1.32zm-9.646 7.013l1.318 1.318 8.328-8.331-1.319-1.319-8.327 8.332zm-.001 2.638l.024.024 1.318-1.321-.023-.023-1.319 1.32zm-9.096 6.464l1.318 1.318 7.778-7.782-1.318-1.318-7.778 7.782zm-.004 2.641l.023.022 1.322-1.322-.023-.023-1.322 1.323zm-9.097 6.465l1.318 1.318 7.779-7.783-1.318-1.318-7.779 7.783zm-.001 2.637l.019.019 1.32-1.319-.02-.019-1.319 1.319zm-9.098 6.467l1.318 1.318 7.78-7.785-1.318-1.318-7.78 7.785zm-.002 2.639l.015.015 1.323-1.318-.018-.018-1.32 1.321zm-9.098 6.465l1.318 1.318 7.78-7.783-1.318-1.318-7.78 7.783zm0 2.637l.015.015 1.319-1.318-.016-.016-1.318 1.319zm-9.098 6.466l1.318 1.318 7.78-7.784-1.318-1.318-7.78 7.784zm-.002 2.639l.012.012 1.318-1.322-.01-.011-1.32 1.321zm-9.096 6.464l1.319 1.318 7.777-7.782-1.318-1.318-7.778 7.782zm-.001 2.638l.008.009 1.322-1.319-.01-.01-1.32 1.32zm-9.099 6.467l1.318 1.318 7.781-7.785-1.318-1.318-7.781 7.785zm-9.099 9.104l1.318 1.318 7.782-7.786-1.318-1.318-7.782 7.786zm9.1-6.468l.008.008 1.317-1.318-.008-.008-1.317 1.318zm-9.101 9.105l.005.005 1.319-1.318-.005-.006-1.319 1.319zm-9.097 6.466l1.318 1.318 7.779-7.784-1.318-1.318-7.779 7.784z" mask="url(#b)"/>
        </g>
        <path fill="url(#c)" d="M609.462.149a5.473 5.473 0 0 0-3.838 1.609L73 534.38l7.767 7.768L613.392 9.525A5.475 5.475 0 0 0 615 5.715v-.149a5.472 5.472 0 0 0-1.608-3.808 5.476 5.476 0 0 0-3.839-1.61h-.091z" transform="translate(60)"/>
        <path fill="url(#d)" d="M555.287 205a5.473 5.473 0 0 0-3.838 1.61L139 619.056l7.767 7.768 412.45-412.449a5.475 5.475 0 0 0 1.608-3.81v-.149a5.472 5.472 0 0 0-1.607-3.808 5.476 5.476 0 0 0-3.84-1.609h-.09z" transform="translate(60)"/>
        <path fill="url(#e)" d="M615.462 92a5.473 5.473 0 0 0-3.838 1.61L79 626.231 86.767 634l532.625-532.624a5.475 5.475 0 0 0 1.608-3.81v-.149a5.472 5.472 0 0 0-1.608-3.808A5.476 5.476 0 0 0 615.553 92h-.091z" transform="translate(60)"/>
        <path fill="url(#f)" d="M536.462 120a5.473 5.473 0 0 0-3.838 1.61L0 654.231 7.767 662l532.625-532.624a5.475 5.475 0 0 0 1.608-3.81v-.149a5.472 5.472 0 0 0-1.608-3.808 5.476 5.476 0 0 0-3.839-1.609h-.091z" transform="translate(60)"/>
    </g>
</svg>
