<?xml version="1.0" encoding="UTF-8"?>
<svg width="128px" height="31px" viewBox="0 0 128 31" version="1.1" xmlns="http://www.w3.org/2000/svg" xmlns:xlink="http://www.w3.org/1999/xlink">
    <!-- Generator: Sketch 60.1 (88133) - https://sketch.com -->
    <title>Fill 1 Copy 5</title>
    <desc>Created with Sketch.</desc>
    <g id="Designs" stroke="none" stroke-width="1" fill="none" fill-rule="evenodd">
        <g id="Home_Master-3" transform="translate(-1404.000000, -979.000000)" fill="#9E9FB1">
            <g id="Client-Logos" transform="translate(0.000000, 856.000000)">
                <path d="M1511.511,144.344803 C1511.63591,144.006472 1511.17663,143.398871 1510.84536,143.394991 C1507.66068,143.391111 1504.47445,143.395767 1501.28978,143.394215 C1501.03686,143.606061 1500.82119,143.863689 1500.57448,144.084071 C1500.62724,144.206677 1500.66293,144.336267 1500.70637,144.462754 C1501.1253,144.46353 1501.54657,144.454994 1501.96628,144.468962 C1501.77776,144.704087 1501.54734,144.90274 1501.34486,145.126225 C1500.55276,145.916959 1499.76687,146.713901 1498.97865,147.508515 C1498.90961,147.589218 1498.82039,147.658281 1498.78082,147.758384 C1498.80332,147.879439 1498.84987,147.995061 1498.9003,148.10758 C1499.92669,148.088956 1500.95463,148.117668 1501.98024,148.092836 C1502.13152,147.975661 1502.25177,147.823567 1502.39219,147.693977 C1503.21144,146.868323 1504.04388,146.056638 1504.85848,145.227104 C1505.06406,145.027675 1505.25414,144.811173 1505.47757,144.631144 C1506.26966,144.635024 1507.06099,144.631144 1507.85386,144.632696 C1506.95082,145.516548 1506.06097,146.413593 1505.16259,147.302102 C1505.05941,147.385133 1504.96166,147.475148 1504.87244,147.572922 C1504.80805,147.644314 1504.72504,147.715705 1504.7328,147.822015 C1504.75529,147.880991 1504.83287,148.037741 1504.8577,148.097492 C1506.48224,148.11534 1508.10755,148.085076 1509.73208,148.105252 C1509.98034,147.862367 1510.22549,147.61405 1510.4722,147.368061 C1510.40703,147.26175 1510.35272,147.150008 1510.30385,147.036713 C1509.88259,147.032057 1509.46132,147.037489 1509.04161,147.027401 L1511.12465,144.845317 C1511.2705,144.693999 1511.44118,144.550441 1511.511,144.344803 L1511.511,144.344803 Z M1489.86838,143.400423 C1488.79699,144.477498 1487.7194,145.547588 1486.64336,146.620006 C1486.52001,146.749597 1486.37881,146.865995 1486.27718,147.014209 C1486.21124,147.141472 1486.16702,147.295118 1486.22675,147.43402 C1486.28184,147.568266 1486.36252,147.690097 1486.41605,147.825119 C1486.49363,148.021445 1486.72094,148.1037 1486.918,148.1037 C1490.09647,148.094388 1493.27727,148.109132 1496.45496,148.094388 C1496.70632,147.856159 1496.95303,147.610946 1497.19198,147.360301 C1497.1462,147.236143 1497.04612,147.141472 1496.98561,147.024297 C1496.58142,147.012658 1496.17722,147.021193 1495.77303,147.025073 C1495.82501,146.947474 1495.88707,146.877635 1495.95379,146.812452 C1496.44255,146.332114 1496.90958,145.830048 1497.40222,145.355142 C1497.78857,144.94154 1498.20052,144.553545 1498.59541,144.147702 C1498.73117,144.001816 1498.89254,143.876105 1499.00425,143.709267 C1498.91969,143.61382 1498.84677,143.508286 1498.7847,143.397319 C1497.77073,143.390335 1496.7552,143.401199 1495.74122,143.391111 C1494.79862,144.352563 1493.83895,145.296167 1492.89014,146.251411 C1492.67912,146.448513 1492.48905,146.671998 1492.26872,146.855907 C1491.47507,146.867547 1490.67987,146.855907 1489.88622,146.860563 L1493.04297,143.737203 C1492.95841,143.624684 1492.8816,143.506734 1492.80402,143.391111 C1491.82496,143.401975 1490.84667,143.386455 1489.86838,143.400423 L1489.86838,143.400423 Z M1476.48187,146.864443 C1477.22587,146.125701 1477.96676,145.385406 1478.70688,144.642783 C1479.7674,144.643559 1480.82793,144.634248 1481.88845,144.648215 C1481.53469,144.961715 1481.21661,145.312463 1480.87603,145.639155 C1480.46873,146.048878 1480.06143,146.457825 1479.65103,146.863667 C1478.59516,146.862115 1477.53852,146.859787 1476.48187,146.864443 L1476.48187,146.864443 Z M1476.36938,143.452415 C1476.16612,143.523806 1476.03035,143.696075 1475.88217,143.841962 C1474.92794,144.808069 1473.97059,145.771073 1473.00937,146.730197 C1472.86042,146.875307 1472.68896,147.037489 1472.67733,147.259422 C1472.6238,147.574474 1472.97911,148.144827 1473.41434,148.119996 L1481.97302,148.109908 C1483.09716,147.003346 1484.20268,145.875832 1485.32604,144.766942 C1485.47034,144.635024 1485.61076,144.475946 1485.64024,144.274964 C1485.70076,143.908697 1485.2857,143.414391 1484.94978,143.396543 C1482.2911,143.399647 1479.63241,143.396543 1476.97373,143.398095 C1476.77125,143.401975 1476.56023,143.367056 1476.36938,143.452415 L1476.36938,143.452415 Z M1446.47297,146.706917 C1446.30928,146.868323 1446.11378,147.046025 1446.10292,147.29279 C1446.07188,147.544987 1446.42798,148.124651 1446.80114,148.119996 C1448.34965,148.120772 1449.89738,148.11922 1451.44588,148.122323 C1451.51105,148.123875 1451.57544,148.113012 1451.63751,148.091284 C1451.64992,148.113788 1451.66078,148.138619 1451.67397,148.163451 L1451.61656,148.129307 C1451.47769,148.286833 1451.32253,148.429616 1451.1759,148.580158 C1450.14098,149.590497 1449.11304,150.608596 1448.08587,151.627471 C1447.60798,152.111689 1446.99044,152.452349 1446.32635,152.597459 C1445.9206,152.696786 1445.5102,152.773609 1445.09515,152.818616 C1444.41709,152.832584 1443.73826,152.82948 1443.06021,152.834136 C1442.98573,152.827152 1442.91979,152.862072 1442.86393,152.906303 C1442.53344,153.156172 1442.19053,153.391297 1441.86082,153.642718 C1441.91667,153.756788 1441.91202,153.91121 1442.00822,153.998897 C1442.84298,153.999673 1443.67775,153.996569 1444.51329,153.998897 C1445.45667,153.992689 1446.40238,154.017521 1447.34575,153.970186 C1447.82132,153.916642 1448.30077,153.863099 1448.75927,153.718765 C1449.37991,153.552703 1449.96332,153.253947 1450.46914,152.859744 C1450.74068,152.647122 1450.97652,152.394925 1451.22245,152.155921 C1453.01146,150.371919 1454.7927,148.580158 1456.58093,146.796156 C1457.59336,145.790473 1458.59492,144.77315 1459.60812,143.768243 C1459.55925,143.62546 1459.45141,143.51527 1459.35909,143.401199 C1459.00842,143.391111 1458.65854,143.418271 1458.30787,143.410511 C1457.7043,143.406631 1457.09995,143.419047 1456.49637,143.401199 C1456.42577,143.406631 1456.34276,143.398095 1456.29466,143.459398 C1455.31016,144.44801 1454.31946,145.429638 1453.33497,146.417473 C1453.12705,146.624662 1452.88655,146.860563 1452.57235,146.860563 C1451.88344,146.865219 1451.19375,146.860563 1450.50405,146.862115 C1450.3582,146.862115 1450.21002,146.872979 1450.06805,146.83418 C1450.09908,146.755029 1450.13632,146.676654 1450.19916,146.617679 C1450.95557,145.871952 1451.70733,145.121569 1452.45753,144.369635 C1452.66312,144.158566 1452.885,143.961464 1453.07585,143.735651 C1453.00215,143.638652 1452.93155,143.539325 1452.85552,143.444655 C1452.82526,143.396543 1452.76165,143.415943 1452.71665,143.409735 C1451.73603,143.412063 1450.75542,143.408959 1449.77557,143.408959 C1448.66928,144.503881 1447.56919,145.603459 1446.47297,146.706917 L1446.47297,146.706917 Z M1436.32002,143.524582 C1436.1765,143.634772 1436.05469,143.769019 1435.92746,143.896281 C1434.93443,144.887996 1433.94373,145.88204 1432.95225,146.875307 C1432.66132,147.172511 1432.74511,148.134739 1433.4348,148.119996 C1436.33631,148.11922 1439.2386,148.122323 1442.14011,148.118444 C1442.39612,147.875559 1442.63429,147.615602 1442.88721,147.369613 C1442.93686,147.311414 1443.01056,147.263302 1443.03228,147.185703 C1442.9803,147.073185 1442.90427,146.973858 1442.84298,146.866771 C1442.68472,146.855907 1442.52646,146.859011 1442.36742,146.858235 C1440.46902,146.866771 1438.57063,146.860563 1436.67223,146.862115 C1436.81343,146.719333 1436.96549,146.588191 1437.10513,146.443857 C1437.15401,146.396521 1437.20754,146.33677 1437.28434,146.349186 C1439.48685,146.350738 1441.68859,146.349962 1443.89032,146.349186 C1444.3752,145.8898 1444.83215,145.400926 1445.31237,144.936108 C1445.49158,144.742886 1445.71424,144.572944 1445.79736,144.312212 C1445.80268,144.084071 1445.61106,143.397319 1445.13238,143.397319 C1442.36043,143.398871 1439.58771,143.397319 1436.81421,143.398871 C1436.64043,143.389559 1436.46975,143.437671 1436.32002,143.524582 L1436.32002,143.524582 Z M1439.05395,144.46353 C1439.97716,144.45577 1440.90037,144.462754 1441.82435,144.45965 C1442.01908,144.456546 1442.21691,144.478274 1442.40853,144.43249 C1442.46439,144.435594 1442.42095,144.501553 1442.39302,144.513969 C1442.15329,144.671495 1441.98107,144.908172 1441.76384,145.092858 C1440.63582,145.096738 1439.50702,145.100618 1438.379,145.091306 C1438.4015,145.079666 1438.424,145.068026 1438.4465,145.057162 C1438.53184,144.956284 1438.62881,144.863941 1438.73122,144.78091 C1438.83751,144.673823 1438.94689,144.56984 1439.05395,144.46353 L1439.05395,144.46353 Z M1426.13293,142.733848 C1425.11507,143.823338 1424.10498,144.922916 1423.02195,145.948775 C1422.60069,146.35229 1422.14452,146.750373 1421.58361,146.94437 C1421.38888,147.021969 1421.17554,146.997914 1420.96995,147.013433 C1420.75738,147.251662 1420.52153,147.46894 1420.31362,147.711825 C1420.35862,147.829775 1420.39275,147.95083 1420.43464,148.069556 C1420.64178,148.087404 1420.8497,148.078868 1421.05762,148.08042 C1421.82101,148.078868 1422.5844,148.081972 1423.34701,148.079644 C1423.63561,148.081196 1423.91568,147.999717 1424.18333,147.898062 C1424.73105,147.666041 1425.19653,147.282702 1425.63254,146.885395 C1426.37886,146.155964 1427.10036,145.403254 1427.82496,144.652095 C1428.45336,144.648991 1429.08254,144.643559 1429.71172,144.655975 C1429.59612,144.759182 1429.46656,144.847645 1429.36416,144.963267 C1429.26718,145.081218 1429.35717,145.228656 1429.39208,145.351263 C1429.4332,145.490165 1429.53018,145.657779 1429.69853,145.639931 C1430.4658,145.640707 1431.23307,145.637603 1432.00034,145.641483 C1432.30213,145.37299 1432.61323,145.116137 1432.91656,144.849973 C1433.05699,144.72271 1433.22533,144.614848 1433.30912,144.439474 C1433.42472,144.120542 1433.12991,143.463278 1432.77149,143.424479 C1432.52556,143.392663 1432.2067,143.401975 1431.95146,143.405855 L1428.91264,143.408959 L1429.24468,143.070627 L1428.97315,142.73928 L1426.13293,142.733848 Z M1472.29951,144.136062 C1472.19555,143.780658 1471.9729,143.381799 1471.55862,143.396543 C1469.89607,143.397319 1468.23274,143.398095 1466.56942,143.398095 L1472.42829,137.530057 L1472.22426,137.207245 L1469.13345,137.205693 C1468.61056,137.745783 1468.07215,138.271904 1467.5415,138.805785 C1465.58027,140.7768 1463.60817,142.738504 1461.64538,144.708743 C1460.65003,145.69813 1459.66708,146.700709 1458.66785,147.685441 C1458.62207,147.721137 1458.60268,147.780112 1458.63371,147.832879 C1458.66707,147.925222 1458.70509,148.016013 1458.75319,148.102924 C1458.79973,148.137843 1458.86956,148.113012 1458.92619,148.121547 C1459.54295,148.116116 1460.15972,148.123099 1460.77571,148.119996 C1461.14189,148.113012 1461.50962,148.134739 1461.87502,148.11146 C1462.08216,147.943846 1462.25439,147.736656 1462.44989,147.555851 C1463.41112,146.609919 1464.36458,145.656227 1465.31804,144.704863 C1465.38166,144.631144 1465.48329,144.649767 1465.57018,144.647439 C1466.55856,144.653647 1467.54771,144.63968 1468.53608,144.654423 C1467.66408,145.5181 1466.79983,146.388761 1465.93326,147.25787 C1465.76336,147.43014 1465.57871,147.593874 1465.44217,147.795632 C1465.47243,147.90427 1465.52363,148.006701 1465.56475,148.11146 C1465.68655,148.123099 1465.80913,148.122323 1465.93248,148.121547 C1466.80526,148.116892 1467.67727,148.122323 1468.54927,148.120772 C1468.6796,148.135515 1468.74865,148.005149 1468.83244,147.930654 C1469.91546,146.84194 1471.00004,145.754777 1472.08228,144.667615 C1472.22736,144.532593 1472.34063,144.340147 1472.29951,144.136062 L1472.29951,144.136062 Z M1528.8929,137.207245 C1528.80058,137.195606 1528.75248,137.282516 1528.69352,137.333732 C1528.17528,137.851317 1527.65627,138.368127 1527.13726,138.883384 C1526.66557,139.347426 1526.21327,139.82854 1525.73693,140.287151 C1524.70278,141.327753 1523.65932,142.357492 1522.62673,143.398095 C1520.44517,143.397319 1518.2636,143.398871 1516.08282,143.398095 C1515.88266,143.414391 1515.69724,143.512166 1515.56225,143.658052 C1514.55215,144.669167 1513.54206,145.680282 1512.53506,146.693726 C1512.3799,146.855131 1512.1875,147.018865 1512.165,147.257094 C1512.13785,147.451868 1512.38223,147.947726 1512.56765,148.044724 C1512.72436,148.144827 1512.91831,148.113788 1513.09519,148.119996 C1515.87956,148.123875 1518.66392,148.116116 1521.44906,148.121547 C1522.99058,146.579655 1524.53055,145.034659 1526.07363,143.492766 C1528.04805,141.513215 1530.03566,139.544528 1532,137.554113 C1531.95966,137.430731 1531.89915,137.313556 1531.82855,137.206469 C1530.85026,137.188622 1529.87119,137.207245 1528.8929,137.207245 L1528.8929,137.207245 Z M1518.18602,144.673823 C1518.28377,144.630368 1518.40015,144.654423 1518.50721,144.648991 C1519.47153,144.657527 1520.43663,144.6358 1521.40018,144.657527 C1521.09374,144.903516 1520.82764,145.198392 1520.55688,145.482405 C1520.54525,145.490941 1520.52042,145.507237 1520.50878,145.514996 C1520.42965,145.603459 1520.34664,145.685714 1520.26906,145.773401 C1520.25587,145.781161 1520.23182,145.795129 1520.21941,145.802889 C1520.05571,145.999214 1519.85323,146.161396 1519.68953,146.357722 C1519.67479,146.36393 1519.64531,146.374794 1519.63057,146.381001 C1519.62437,146.396521 1519.61118,146.426785 1519.60497,146.443081 C1519.44205,146.568015 1519.32878,146.747269 1519.16276,146.866771 C1518.83537,146.893155 1518.50488,146.870651 1518.17671,146.878411 C1517.44435,146.876859 1516.71122,146.880739 1515.97886,146.876859 C1516.71743,146.145876 1517.44513,145.403254 1518.18602,144.673823 L1518.18602,144.673823 Z M1416.84655,137.162238 C1416.62855,137.255357 1416.48735,137.45401 1416.31667,137.609208 C1413.29802,140.629362 1410.28014,143.649516 1407.25993,146.668118 C1407.14123,146.793052 1407.00236,146.905571 1406.92478,147.063873 C1406.7991,147.347885 1407.04038,147.874783 1407.26846,148.012133 C1407.43837,148.122323 1407.64938,148.090508 1407.84101,148.092836 C1409.80302,148.092836 1411.76503,148.094388 1413.72704,148.09206 C1413.70997,148.120772 1413.69368,148.150259 1413.67661,148.179747 C1413.56722,148.265106 1413.47257,148.368312 1413.38025,148.472295 C1412.36007,149.473322 1411.36239,150.498405 1410.34375,151.501761 C1409.96671,151.90062 1409.49968,152.227312 1408.96748,152.37863 C1408.54001,152.493476 1408.10245,152.585043 1407.65792,152.590475 C1406.90927,152.603667 1406.15984,152.606771 1405.41119,152.616083 C1405.34447,152.620739 1405.27077,152.609099 1405.21336,152.651002 C1404.80296,152.937343 1404.42204,153.26869 1404,153.538735 C1404.02327,153.671429 1404.06672,153.799468 1404.1249,153.920522 C1404.21878,153.963978 1404.32972,153.936818 1404.43057,153.943802 C1405.13035,153.948458 1405.83167,153.947682 1406.53223,153.951562 C1407.44147,153.950786 1408.35071,153.974066 1409.26073,153.963202 C1409.84879,153.953114 1410.44694,153.893363 1410.99776,153.673757 C1411.67969,153.402161 1412.32826,153.040549 1412.89693,152.573403 C1413.1382,152.363886 1413.36241,152.135745 1413.58817,151.910708 C1415.38028,150.121274 1417.17471,148.334169 1418.96449,146.542407 C1419.91253,145.593371 1420.86677,144.651319 1421.80782,143.696075 C1421.74265,143.572693 1421.66973,143.45319 1421.57585,143.349984 C1420.97926,143.367832 1420.38267,143.352312 1419.78607,143.35852 C1418.70382,143.352312 1417.6208,143.367056 1416.53855,143.352312 C1416.47261,143.415943 1416.41055,143.482678 1416.35003,143.551741 C1416.15531,143.783762 1415.92722,143.984744 1415.74568,144.228405 C1415.7868,144.344803 1415.82714,144.462754 1415.86516,144.580704 C1416.32909,144.586912 1416.79302,144.574496 1417.25695,144.586912 C1416.59519,145.275215 1415.91403,145.944895 1415.24063,146.62311 C1415.15374,146.698381 1415.0878,146.841164 1414.95746,146.83806 C1413.48887,146.839612 1412.01949,146.842716 1410.55089,146.838836 C1412.90624,144.473618 1415.26856,142.113831 1417.63787,139.762581 C1417.99474,139.383898 1418.371,139.024614 1418.73951,138.658347 C1418.83416,138.559796 1418.92881,138.462798 1419.02578,138.366575 C1419.07621,138.320015 1419.12586,138.257936 1419.20189,138.263368 C1420.48042,138.252504 1421.75894,138.269576 1423.03669,138.25328 C1422.53475,138.784834 1421.99944,139.285347 1421.49595,139.816124 C1421.22752,140.093929 1420.93814,140.352334 1420.68135,140.640226 C1420.71083,140.765936 1420.76824,140.883111 1420.79695,141.010373 C1421.84195,141.014253 1422.88696,141.005717 1423.93197,141.014253 C1424.00645,140.97235 1424.06153,140.903287 1424.12204,140.845087 C1425.00181,139.955027 1425.89243,139.077382 1426.77142,138.188873 C1427.09725,137.862181 1426.7272,137.045839 1426.28731,137.010144 C1423.39356,137.010144 1420.49981,137.011696 1417.60606,137.009368 C1417.34539,136.996176 1417.07774,137.035752 1416.84655,137.162238 L1416.84655,137.162238 Z M1475.79606,123.26503 C1476.64091,123.154063 1477.48809,123.047752 1478.3407,123.026025 C1478.89773,122.967049 1479.45708,123.024473 1480.01489,123.040768 C1481.00792,123.109832 1481.99629,123.24951 1482.99165,123.283653 C1483.31826,123.288309 1483.6441,123.24951 1483.97149,123.25339 C1484.51533,123.213038 1485.05917,123.147855 1485.60533,123.141647 C1486.0041,123.102072 1486.40519,123.115264 1486.80473,123.106728 C1487.47192,123.110608 1488.13989,123.08888 1488.80475,123.146303 C1489.26713,123.150959 1489.72098,123.264254 1490.18336,123.258046 C1490.29973,123.258822 1490.3967,123.182775 1490.50919,123.161047 C1490.76133,123.114488 1491.02821,123.132335 1491.26948,123.223902 C1491.45335,123.301501 1491.64885,123.20683 1491.83504,123.182775 C1492.1764,123.128455 1492.52784,123.088104 1492.8723,123.142423 C1493.37347,123.199846 1493.82343,123.444283 1494.28193,123.638281 C1494.68923,123.831503 1495.10118,124.01386 1495.51934,124.183026 C1495.76915,124.287009 1496.03758,124.337448 1496.29127,124.432895 C1496.40686,124.475574 1496.49918,124.563261 1496.57676,124.65638 C1496.67684,124.791402 1496.60857,124.979192 1496.7071,125.115766 C1496.90105,125.453322 1497.25404,125.655079 1497.59151,125.825021 C1497.93908,125.980995 1498.28043,126.151713 1498.62333,126.318551 C1499.24398,126.596356 1499.89488,126.801217 1500.5163,127.078245 C1500.90653,127.245859 1501.29831,127.418129 1501.65673,127.649374 C1501.79327,127.752581 1501.95542,127.889155 1501.93912,128.080825 C1501.92826,128.286462 1501.83206,128.506067 1501.64975,128.614706 C1501.44571,128.779992 1501.20987,128.908806 1500.95618,128.97399 C1500.8111,129.011237 1500.67999,129.081076 1500.54888,129.149363 C1500.37898,129.240154 1500.18348,129.254122 1499.99728,129.276626 C1499.52016,129.316201 1499.04615,129.23317 1498.57291,129.193595 C1498.03062,129.135395 1497.48523,129.10746 1496.94449,129.037621 C1496.38048,128.960022 1495.80949,128.945278 1495.24626,128.863799 C1494.52864,128.775336 1493.79783,128.844399 1493.08642,128.699289 C1492.79471,128.648074 1492.50146,128.589098 1492.23303,128.459508 C1492.09571,128.388893 1491.99796,128.264734 1491.86918,128.18248 C1491.64187,128.048233 1491.38353,127.987706 1491.13139,127.922523 C1490.80943,127.830956 1490.47506,127.801468 1490.14612,127.745597 C1489.3548,127.618335 1488.54486,127.744045 1487.78379,127.97141 C1487.49597,128.039697 1487.21125,128.152992 1486.9723,128.328366 C1486.84352,128.416829 1486.9017,128.595306 1486.94127,128.715585 C1487.16858,129.326289 1487.39744,129.945529 1487.46183,130.598913 C1487.49985,130.85499 1487.48744,131.125034 1487.60536,131.363263 C1487.70466,131.622444 1487.96223,131.774538 1488.21669,131.848257 C1488.79156,131.985607 1489.38738,131.984831 1489.96691,132.094246 C1490.25395,132.152445 1490.54643,132.160981 1490.83426,132.209869 C1491.24311,132.275828 1491.65583,132.311523 1492.06003,132.402314 C1492.55344,132.491553 1493.04685,132.581568 1493.53483,132.69719 C1494.06005,132.816693 1494.60079,132.871788 1495.11204,133.04949 C1495.45185,133.160457 1495.78311,133.335054 1496.02284,133.606651 C1496.83355,133.712186 1497.64892,133.815392 1498.43326,134.055173 C1499.1726,134.255379 1499.86307,134.592158 1500.57681,134.865307 C1501.45425,135.178031 1502.35185,135.431004 1503.26342,135.625777 C1503.64434,135.717344 1504.0369,135.732864 1504.42713,135.738296 C1504.79486,135.805807 1505.05243,136.111547 1505.28051,136.385472 C1505.2875,136.455311 1505.33172,136.535238 1505.28051,136.598093 C1505.16492,136.759499 1504.93295,136.775795 1504.8321,136.947289 C1504.73512,137.069119 1504.5691,137.093951 1504.42635,137.121111 C1504.24947,137.13663 1504.10439,137.257685 1503.92829,137.275533 C1503.68391,137.301916 1503.43643,137.301916 1503.19205,137.279413 C1503.01904,137.264669 1502.87086,137.168446 1502.74286,137.059031 C1502.59856,136.920905 1502.38909,136.915473 1502.20755,136.866586 C1501.86154,136.802179 1501.52252,136.68966 1501.21918,136.508854 C1500.58457,136.134827 1499.89333,135.871766 1499.20674,135.611034 C1499.0446,135.55361 1498.8809,135.502395 1498.71953,135.446524 C1498.28043,135.332453 1497.83667,135.208295 1497.37894,135.210623 C1497.66366,135.486875 1498.00192,135.704928 1498.36034,135.874094 C1498.68074,136.040932 1499.03839,136.112323 1499.37897,136.228722 C1499.6505,136.325721 1499.95229,136.37616 1500.18037,136.56783 C1500.372,136.733891 1500.52638,136.944185 1500.62026,137.180862 C1500.62258,137.241389 1500.62646,137.302692 1500.63189,137.363995 C1500.43174,137.546353 1500.13926,137.506002 1499.89255,137.538593 C1499.6249,137.646456 1499.33242,137.652664 1499.04925,137.638696 C1498.78237,137.6224 1498.55118,137.474186 1498.34094,137.322868 C1498.19819,137.213453 1498.00967,137.263117 1497.84753,137.222765 C1497.63186,137.188622 1497.45497,137.049719 1497.30369,136.902281 C1497.08414,136.68578 1496.83976,136.49411 1496.64426,136.254329 C1496.38514,135.964885 1496.15317,135.650609 1495.86923,135.383668 C1495.78544,135.315381 1495.72027,135.189671 1495.59615,135.209847 C1494.54105,135.212175 1493.48906,135.283566 1492.43474,135.322365 C1491.2369,135.375909 1490.03751,135.381341 1488.83811,135.418588 C1488.1492,135.455836 1487.46028,135.489203 1486.76982,135.501619 C1486.33459,135.516363 1485.89859,135.518691 1485.46414,135.485323 C1485.14451,135.444972 1484.81324,135.386772 1484.54403,135.196655 C1484.16544,134.923506 1483.96916,134.48352 1483.77211,134.075349 C1483.65263,133.858072 1483.55411,133.617515 1483.36171,133.453005 C1482.79847,133.66097 1482.24765,133.899199 1481.68519,134.108717 C1481.36556,134.232875 1481.02809,134.288746 1480.69837,134.373329 C1480.25694,134.46412 1479.80387,134.454808 1479.35623,134.49128 C1478.14209,134.547151 1476.97528,134.14674 1475.82244,133.820824 C1475.06913,133.560092 1474.32203,133.277631 1473.59433,132.951715 C1472.90696,132.618815 1472.2196,132.284364 1471.54775,131.918872 C1470.52602,131.387319 1469.5167,130.817742 1468.42126,130.451475 C1467.95811,130.329644 1467.48719,130.223334 1467.00775,130.20083 C1466.64157,130.20083 1466.26996,130.203158 1465.91076,130.282309 C1465.21874,130.471651 1464.55776,130.779719 1463.97047,131.193321 C1463.44292,131.573557 1462.96192,132.011215 1462.45067,132.411626 C1461.88976,132.859372 1461.31955,133.297031 1460.73149,133.709082 C1460.14731,134.128116 1459.55847,134.547151 1458.92153,134.882379 C1458.50415,135.095 1458.06039,135.264166 1457.59568,135.333229 C1457.09064,135.403068 1456.58481,135.292878 1456.09683,135.167943 C1455.54601,135.503947 1454.99907,135.855471 1454.40092,136.103011 C1453.90208,136.290801 1453.366,136.369952 1452.83535,136.37228 C1452.32021,136.4072 1451.8043,136.397888 1451.28917,136.367624 C1450.44277,136.34124 1449.60722,136.119307 1448.85004,135.739848 C1448.16966,135.418588 1447.53195,135.012745 1446.83605,134.723301 C1446.69951,134.677517 1446.5684,134.574311 1446.421,134.586727 C1445.81664,134.858323 1445.21462,135.13768 1444.62889,135.445748 C1444.31856,135.626553 1444.00281,135.796495 1443.6762,135.943933 C1443.28985,136.120083 1442.91358,136.349 1442.48456,136.397112 C1442.22932,136.437463 1441.97098,136.447551 1441.71729,136.493334 C1441.48688,136.518166 1441.26422,136.586453 1441.03303,136.598869 C1440.65134,136.629909 1440.2774,136.504198 1439.94148,136.331929 C1439.83364,136.276057 1439.74054,136.196906 1439.65831,136.108443 C1439.69167,136.028516 1439.73899,135.951693 1439.81657,135.907462 C1439.99966,135.802703 1440.20215,135.72588 1440.41161,135.692513 C1440.53186,135.671561 1440.6366,135.608706 1440.73978,135.548178 C1441.04467,135.372029 1441.3899,135.291326 1441.72583,135.198983 C1442.06873,135.045337 1442.42327,134.869187 1442.80962,134.882379 C1443.15641,134.890915 1443.47139,134.724077 1443.78559,134.598366 C1444.15875,134.426873 1444.53501,134.261587 1444.90662,134.086213 C1444.5001,133.965158 1444.07031,133.943431 1443.64827,133.975246 C1442.68472,134.035774 1441.76151,134.345394 1440.85382,134.655014 C1440.39144,134.814868 1439.92984,134.980154 1439.47289,135.154751 C1438.91121,135.362717 1438.35961,135.61569 1437.76302,135.708808 C1437.23469,135.805031 1436.69473,135.748384 1436.16331,135.719672 C1435.67067,135.709584 1435.18269,135.547402 1434.77539,135.27115 C1434.65514,135.178031 1434.51395,135.07948 1434.47438,134.924282 C1434.48679,134.821852 1434.59075,134.758996 1434.67143,134.709333 C1434.76919,134.646478 1435.20364,134.492056 1435.30604,134.51068 C1435.45577,134.420665 1435.58456,134.294178 1435.75213,134.236755 C1435.98875,134.152172 1436.24011,134.082333 1436.4938,134.107941 C1436.69085,134.126564 1436.87394,134.216579 1437.07255,134.227443 C1437.27503,134.239859 1437.4783,134.213475 1437.67923,134.188644 C1437.73431,134.183212 1437.78008,134.149844 1437.82818,134.12346 C1437.91197,134.098629 1437.99808,134.077677 1438.0873,134.077677 C1438.57683,134.066813 1439.06714,134.003958 1439.53883,133.869712 C1440.15327,133.698218 1440.69401,133.487148 1441.28129,133.287719 C1442.05942,132.995171 1442.81583,132.645199 1443.60405,132.379034 C1443.94928,132.274276 1444.3077,132.171069 1444.67233,132.222284 C1444.96016,132.26962 1445.23091,132.385242 1445.50244,132.491553 C1445.98189,132.677791 1446.49082,132.773237 1446.99897,132.841525 C1447.06957,132.847733 1447.14792,132.866356 1447.21542,132.832213 C1447.81434,132.465945 1448.34809,131.994143 1448.97882,131.679091 C1449.19295,131.617012 1449.41715,131.577437 1449.64058,131.613908 C1450.37915,131.717891 1451.02307,132.138478 1451.74845,132.291348 C1451.8299,132.316955 1451.85939,132.223836 1451.89973,132.174173 C1452.52115,131.144434 1453.40091,129.817491 1454.27059,129.011237 C1454.96959,128.355525 1455.72289,127.758789 1456.51576,127.22258 C1455.73841,127.291643 1454.98743,127.519008 1454.22637,127.68119 C1452.96646,127.956666 1451.70267,128.214295 1450.43734,128.46494 C1450.07814,128.518483 1449.72592,128.61393 1449.3644,128.65273 C1449.00753,128.704721 1448.65531,128.794736 1448.29456,128.807928 C1447.84382,128.880095 1447.39153,128.942174 1446.93535,128.970886 C1446.06102,129.063228 1445.17816,129.058572 1444.30382,128.972438 C1443.86472,128.944502 1443.42717,128.892511 1442.99349,128.817239 C1441.99581,128.675233 1441.01364,128.419933 1440.07414,128.053665 C1439.4628,127.878291 1439.18662,127.453825 1440.10284,127.709125 C1441.54817,128.111088 1441.8965,128.164632 1443.68163,128.256975 C1444.27434,128.298878 1444.86939,128.29655 1445.4621,128.271718 C1447.84537,128.042025 1449.0277,127.86122 1451.88731,127.171364 C1452.37219,127.03479 1452.86017,126.908304 1453.34738,126.776385 C1453.79424,126.649899 1454.24033,126.518757 1454.69185,126.41167 C1455.00838,126.339503 1455.32025,126.24328 1455.64298,126.199049 C1455.79815,126.164905 1455.95486,126.140073 1456.11235,126.123778 C1456.31173,126.06713 1456.51887,126.068682 1456.72135,126.032211 C1456.86876,126.010483 1457.01616,125.990307 1457.16589,125.980219 C1457.342,125.938316 1457.52664,125.94142 1457.7043,125.904948 C1457.77877,125.887877 1457.85403,125.879341 1457.93006,125.869253 C1458.70353,125.737334 1459.47779,125.572049 1460.20549,125.27174 C1460.77183,125.057567 1461.35834,124.815458 1461.94019,124.619133 C1462.49334,124.431343 1463.15976,124.247433 1463.73695,124.15509 C1464.56396,123.986701 1465.40416,123.895134 1466.24435,123.817535 C1467.7789,123.722864 1469.31887,123.732952 1470.85574,123.722088 C1472.51363,123.7508 1474.15989,123.504035 1475.79606,123.26503 L1475.79606,123.26503 Z" id="Fill-1-Copy-5"></path>
            </g>
        </g>
    </g>
</svg>