
<svg xmlns="http://www.w3.org/2000/svg" viewBox="0 0 1140 665">
<style>
	.background {
		animation-name: fade;
		animation-duration: 3s;
		animation-iteration: 1;
	}

	#Red_line{
		animation: shoot 0.5s 1.5s ease both;
	}

	#Yellow_line{
		animation: shoot 0.5s 1s ease both;
	}

	#Green_line{
		animation: shoot 0.5s 0s ease both;
	}

	#Blue_line{
		animation: shoot 0.5s 0.5s ease both;
	}

	@keyframes shoot {
	0% {transform: translateZ(0) translate(-400px, 400px); opacity: 0;}
	100% {transform: translateZ(0) translate(0px, 0px); opacity: 1;}
	}

	@keyframes fade {
	0% {opacity: 0;}
	100% {opacity: 1;}
	}
</style>
  <g class="background" id="Layer_1">
    <g fill="#272930">
      <path d="M782 252.2l-1.4-1.4-174.2 174.3 1.3 1.3zM780.6 232.5L608.4 60.3l-1.3-1.3-1.3 1.3L.7 665h2.6L607.1 61.6l172.2 172.2-7.8 7.8L609.2 79.3l-2-2L19 665h2.6L607.2 79.9l163 163-7.8 7.8L609.2 97.5l-.6-.7-1.3-1.3-1.3 1.3-.7.7L37.4 665H40L607.3 98.2 761.1 252l-7.8 7.8L610.5 117l-1.9-1.9-.9-.9-.4-.5-1.3 1.3-1.2 1.2L55.8 665h2.6l548.9-548.5L752 261.1l-7.8 7.8-136.8-136.8-.3.4-1 1L74.2 665h2.6l530.6-530.2 135.5 135.5-7.8 7.8-127.6-127.7-1.3 1.3L92.5 665h2.6l512.3-512 126.3 126.3-7.8 7.8-118.3-118.4-1.3 1.3 1.3 1.3 117.1 117.1-7.8 7.8-109.3-109.3-.5.5-.8.8-477 476.8h2.6l475.7-475.4 107.9 107.9-7.8 7.8-100-100.1-1.3 1.3-2.2 2.2L147.6 665h2.6l457.5-457.1 98.8 98.8-7.8 7.8-86.2-86.2-3.4-3.3-1.3-1.3-1.3 1.3L166 665h2.6l347.6-347.3 87.8 87.7 2.6 2.6.6.6L782 233.8l-1.4-1.3zM607.1 406l-89.6-89.6 7.8-7.8 89.6 89.6-7.8 7.8zm9.1-9.1l-89.6-89.6 7.8-7.8 89.6 89.6-7.8 7.8zm9.1-9.1l-89.6-89.6 7.8-7.8.4.4 89.1 89.1-7.7 7.9zm9.1-9.1l-89.2-89.2-.4-.4 7.8-7.8.5.5 89 89-7.7 7.9zm9.1-9.1l-89.1-89.2-.4-.4 7.8-7.8 89.6 89.6-7.9 7.8zm9.1-9.1L563 270.9l7.8-7.8.4.4 89.2 89.2-7.8 7.8zm9.1-9.1l-89.2-89.2-.4-.4 7.8-7.8.2.2 89.4 89.4-7.8 7.8zm9.1-9.1l-89.4-89.4-.1-.2 7.8-7.8 89.6 89.6-7.9 7.8zm9.2-9.1l-89.6-89.6 7.8-7.8 89.6 89.6-7.8 7.8zm9-9.1l-89.6-89.6 8.3-8.3 89.6 89.6-8.3 8.3z"/>
      <path transform="rotate(-45 694.18619954 412.04007615)" d="M571 411.1h246.4v1.9H571z"/>
      <path transform="rotate(-45 694.18510096 467.10623118)" d="M571 466.2h246.4v1.9H571z"/>
      <path transform="rotate(-45.025 694.14539107 448.7440326)" d="M571 447.8h246.4v1.9H571z"/>
      <path transform="rotate(-45 694.1844567 430.39559803)" d="M571 429.5h246.4v1.9H571z"/>
      <path d="M607.3 95.6l1.2 1.2z"/>
      <path transform="rotate(-45 694.18652386 356.97374182)" d="M571 356h246.4v1.9H571z"/>
      <path transform="rotate(-45 694.18634384 393.68431638)" d="M571 392.7h246.4v1.9H571z"/>
      <path transform="rotate(-45 694.18640026 375.32979301)" d="M571 374.4h246.4v1.9H571z"/>
      <path d="M607.6 171.3L113.5 665h-2.6l495.3-495zM1140 220.3L871.6 488.9l-89.8-89.8.2-.2-1.3-1.3-172.6 172.6-1.7 1.7-.7.7L698 665h2.6l-92.4-92.4 7.8-7.8L716.3 665h2.6L617.4 563.5l7.8-7.8L734.5 665h2.6L626.5 554.4l7.8-7.8L752.7 665h2.6L635.6 545.3l7.8-7.8L770.9 665h2.6L644.7 536.2l7.8-7.8L789.1 665h2.6L653.8 527.1l7.8-7.8L807.3 665h2.6l-147-147 7.8-7.8L825.5 665h2.6L672 508.9l7.8-7.8L843.7 665h2.7L681.1 499.8l7.8-7.8 172.4 172.3-.6.6h2.6l.6-.6 8.3-8.3 1.3-1.3 7.8-7.8 1.3-1.3 7.8-7.8 10.4-10.4 7.8-7.8 18.2-18.2 1.3-1.3 7.8-7.8 1.3-1.3 7.8-7.8 1.3-1.3 7.8-7.8 1.3-1.3L1140 388.1v-2.6l-185.9 186-7.8-7.8L1140 369.8v-2.6L945 562.3l-7.9-7.9 202.9-203v-2.6L935.8 553.2l-7.9-7.9L1140 333.1v-2.6L926.6 544l-7.8-7.9L1140 314.7v-2.6L917.5 534.8l-7.9-7.9L1140 296.4v-2.6L908.3 525.6l-7.9-7.9L1140 278v-2.6l-240.9 241-7.9-7.9L1140 259.6V257L889.9 507.3l-7.8-7.9L1140 241.3v-2.6L880.7 498.1l-7.8-7.9L1140 222.9v-2.6zM862.6 663.1L690.2 490.7l8.3-8.3 172.3 172.3-8.2 8.4zm9.6-9.7L699.9 481.1l7.8-7.8L880 645.6l-7.8 7.8zm9.1-9.1L709 472l7.8-7.8 172.3 172.3-7.8 7.8zm9.1-9.1L718.1 462.9l7.8-7.8 172.3 172.3-7.8 7.8zm9.1-9.1L727.2 453.8l7.8-7.8 172.3 172.3-7.8 7.8zm9.1-9.1L736.3 444.7l7.8-7.8 172.3 172.3-7.8 7.8zm9.1-9.1L745.4 435.6l7.8-7.8 172.3 172.3-7.8 7.8zm9.1-9.1L754.5 426.5l7.8-7.8L934.6 591l-7.8 7.8zm9.1-9.1L763.6 417.4l7.8-7.8 172.3 172.3-7.8 7.8zm16.9-16.9l-7.8 7.8-172.3-172.3 7.8-7.8 89.8 89.8.1.1 82.4 82.4z"/>
      <path transform="rotate(-45.219 936.53592741 591.67557078)" d="M935.7 591.6h1.9v.1h-1.9z"/>
      <path d="M919.1 609.2l-1.3 1.4-.1-.1 1.3-1.3zM891.8 636.5l-1.3 1.4-.1-.1 1.3-1.3zM900.9 627.4l-1.4 1.4v-.1l1.3-1.3z"/>
      <path transform="rotate(-45 927.49741982 600.80086871)" d="M926.6 600.8h1.9v.1h-1.9z"/>
      <path transform="rotate(-45 954.79290484 573.49107881)" d="M953.9 573.4h1.9v.1h-1.9z"/>
      <path transform="rotate(-44.781 945.71240379 582.58850025)" d="M944.8 582.5h1.9v.1h-1.9z"/>
      <path d="M910 618.3l-1.3 1.4-.1-.1 1.3-1.3zM882.7 645.6l-1.4 1.4v-.1l1.3-1.3z"/>
    </g>
    <path fill="none" d="M607.8 114.3l.9.9"/>
  </g>
  <g id="Lines">
    <linearGradient id="Red_line_1_" gradientUnits="userSpaceOnUse" x1="271.8552" y1="753.6812" x2="271.8552" y2="752.7336" gradientTransform="matrix(421.8255 0 0 -421.8255 -114265.5391 318126.9375)">
      <stop offset="0" stop-color="#ff7a72"/>
      <stop offset="1" stop-color="#171b23" stop-opacity="0"/>
    </linearGradient>
    <path id="Red_line" d="M615.3 205c-1.4 0-2.8.5-3.8 1.6L199 619.1l7.8 7.8 412.5-412.4c1.1-1.1 1.6-2.4 1.6-3.8v-.1c0-1.4-.6-2.8-1.6-3.8-1.1-1.3-2.5-1.8-4-1.8z" fill-rule="evenodd" clip-rule="evenodd" fill="url(#Red_line_1_)"/>
    <linearGradient id="Yellow_line_1_" gradientUnits="userSpaceOnUse" x1="271.9982" y1="753.7274" x2="271.9982" y2="752.7896" gradientTransform="matrix(542 0 0 -542 -147013 408612.25)">
      <stop offset="0" stop-color="#ffa43e"/>
      <stop offset="1" stop-color="#171b23" stop-opacity="0"/>
    </linearGradient>
    <path id="Yellow_line" d="M675.5 92c-1.4 0-2.8.5-3.8 1.6L139 626.2l7.8 7.8 532.6-532.6c1.1-1.1 1.6-2.4 1.6-3.8v-.1c0-1.4-.6-2.8-1.6-3.8-1.1-1.2-2.5-1.7-3.9-1.7z" fill-rule="evenodd" clip-rule="evenodd" fill="url(#Yellow_line_1_)"/>
    <linearGradient id="Blue_line_1_" gradientUnits="userSpaceOnUse" x1="271.9982" y1="753.7274" x2="271.9982" y2="752.7896" gradientTransform="matrix(542 0 0 -542 -147092 408640.25)">
      <stop offset="0" stop-color="#58c4fc"/>
      <stop offset="1" stop-color="#171b23" stop-opacity="0"/>
    </linearGradient>
    <path id="Blue_line" d="M596.5 120c-1.4 0-2.8.5-3.8 1.6L60 654.2l7.8 7.8 532.6-532.6c1.1-1.1 1.6-2.4 1.6-3.8v-.1c0-1.4-.6-2.8-1.6-3.8-1.1-1.2-2.5-1.7-3.9-1.7z" fill-rule="evenodd" clip-rule="evenodd" fill="url(#Blue_line_1_)"/>
    <linearGradient id="Green_line_1_" gradientUnits="userSpaceOnUse" x1="271.9982" y1="753.7274" x2="271.9982" y2="752.7799" gradientTransform="matrix(542 0 0 -542 -147019 408520.4062)">
      <stop offset="0" stop-color="#9bdc50"/>
      <stop offset="1" stop-color="#171b23" stop-opacity="0"/>
    </linearGradient>
    <path id="Green_line" d="M669.5.1c-1.4 0-2.8.5-3.8 1.6L133 534.4l7.8 7.8L673.4 9.5c1.1-1.1 1.6-2.4 1.6-3.8v-.1c0-1.4-.6-2.8-1.6-3.8-1.1-1.1-2.5-1.6-3.9-1.7z" fill-rule="evenodd" clip-rule="evenodd" fill="url(#Green_line_1_)"/>
  </g>
</svg>