<?xml version="1.0" encoding="UTF-8"?>
<svg width="238px" height="238px" viewBox="0 0 238 238" version="1.1" xmlns="http://www.w3.org/2000/svg" xmlns:xlink="http://www.w3.org/1999/xlink">
    <!-- Generator: Sketch 61 (89581) - https://sketch.com -->
    <title>Group 36</title>
    <desc>Created with Sketch.</desc>
    <g id="Designs" stroke="none" stroke-width="1" fill="none" fill-rule="evenodd" stroke-dasharray="11.929,11.929">
        <g id="Solutions_Bus-&amp;-Coach_V2" transform="translate(-333.000000, -2691.000000)" stroke="#E9E9E9" stroke-width="2">
            <g id="Group-36" transform="translate(334.000000, 2692.000000)">
                <path d="M0,118 C0,183.169448 52.8305523,236 118,236 C183.169448,236 236,183.169448 236,118 C236,52.8305523 183.169448,0 118,0 C52.8305523,0 0,52.8305523 0,118 Z" id="Stroke-1"></path>
                <path d="M34,118 C34,164.39181 71.6081898,202 118,202 C164.39181,202 202,164.39181 202,118 C202,71.6081898 164.39181,34 118,34 C71.6081898,34 34,71.6081898 34,118 Z" id="Stroke-1"></path>
                <path d="M70,118 C70,144.509606 91.4903942,166 118,166 C144.509606,166 166,144.509606 166,118 C166,91.4903942 144.509606,70 118,70 C91.4903942,70 70,91.4903942 70,118 Z" id="Stroke-1"></path>
            </g>
        </g>
    </g>
</svg>