<svg xmlns="http://www.w3.org/2000/svg" width="32" height="32" viewBox="0 0 32 32">
    <g fill="none" fill-rule="evenodd" stroke="#6F708E" stroke-linecap="round" stroke-linejoin="round" stroke-width="1.2">
        <path d="M9.787 14.868h12.321M9.787 10.761h12.321M9.787 18.974h7.187M16.461 4.6c-7.655 0-13.86 4.597-13.86 10.268 0 2.374 1.097 4.553 2.924 6.293-.288 1.895-.862 3.86-1.444 5.702-.233.74.281 1.511.892 1.324 2.964-.912 5.081-2.299 6.55-3.735 1.536.434 3.196.683 4.938.683 7.655 0 13.861-4.597 13.861-10.267 0-5.67-6.206-10.268-13.86-10.268z"/>
    </g>
</svg>
