<?xml version="1.0" encoding="UTF-8"?>
<svg width="15px" height="15px" viewBox="0 0 15 15" version="1.1" xmlns="http://www.w3.org/2000/svg" xmlns:xlink="http://www.w3.org/1999/xlink">
    <!-- Generator: Sketch 62 (91390) - https://sketch.com -->
    <title>Group 2</title>
    <desc>Created with Sketch.</desc>
    <g id="Symbols" stroke="none" stroke-width="1" fill="none" fill-rule="evenodd">
        <g id="Components/Footer" transform="translate(-1326.000000, -356.000000)" fill="#FFFFFF">
            <g id="Group-2" transform="translate(1326.000000, 356.000000)">
                <path d="M0.4444,14.25 L3.1664,14.25 C3.2964,14.25 3.4024,14.145 3.4024,14.014 L3.4024,4.878 C3.4024,4.748 3.2964,4.642 3.1664,4.642 L0.4444,4.642 C0.3144,4.642 0.2084,4.748 0.2084,4.878 L0.2084,14.014 C0.2084,14.145 0.3144,14.25 0.4444,14.25 M14.9204,8.74 L14.9204,14.014 C14.9204,14.145 14.8144,14.25 14.6844,14.25 L11.9614,14.25 C11.8314,14.25 11.7254,14.145 11.7254,14.014 L11.7254,9.109 C11.7254,7.819 11.2644,6.938 10.1074,6.938 C9.2244,6.938 8.7004,7.531 8.4684,8.105 C8.3844,8.311 8.3634,8.596 8.3634,8.884 L8.3634,14.014 C8.3634,14.144 8.2574,14.25 8.1274,14.25 L5.4054,14.25 C5.2754,14.25 5.1694,14.145 5.1694,14.014 C5.1754,12.708 5.2034,6.371 5.1754,4.881 C5.1734,4.749 5.2784,4.642 5.4114,4.642 L8.1274,4.642 C8.2574,4.642 8.3634,4.748 8.3634,4.878 L8.3634,6.003 C8.3574,6.014 8.3474,6.025 8.3424,6.035 L8.3634,6.035 L8.3634,6.003 C8.7884,5.351 9.5454,4.417 11.2424,4.417 C13.3444,4.417 14.9204,5.79 14.9204,8.74" id="Fill-14-Copy"></path>
                <path d="M3.42,1.71 C3.42,2.654 2.654,3.42 1.71,3.42 C0.766,3.42 -8.73079387e-13,2.654 -8.73079387e-13,1.71 C-8.73079387e-13,0.766 0.766,-1.95399252e-14 1.71,-1.95399252e-14 C2.654,-1.95399252e-14 3.42,0.766 3.42,1.71" id="Fill-16-Copy"></path>
            </g>
        </g>
    </g>
</svg>