<svg xmlns="http://www.w3.org/2000/svg" width="168" height="168" viewBox="0 0 168 168">
    <g fill="#2757F2" fill-rule="evenodd">
        <path d="M0 164.71l3.12 3.09h2.84L0 161.9zM0 148.83l19.16 18.97H22L0 146.02zM0 132.95l35.2 34.85h2.85L0 130.13zM0 117.07l51.241 50.73h2.849L0 114.26zM0 101.19l67.28 66.61h2.85L0 98.38zM0 85.31l83.32 82.49h2.85L0 82.5zM0 69.43l99.359 98.37h2.851L0 66.61zM0 53.54L115.411 167.8h2.839L0 50.73zM0 37.67L131.45 167.8h2.84L0 34.85zM0 21.79L147.49 167.8h2.85L0 18.97zM0 5.9l163.53 161.9h2.85L0 3.09zM10.08 0L167.8 156.14v-2.81L12.919 0zM26.12 0L167.8 140.26v-2.81L28.97 0zM42.16 0L167.8 124.38v-2.81L45.01 0zM58.2 0l109.6 108.5v-2.81L61.05 0zM74.24 0l93.56 92.62V89.8L77.09 0zM90.28 0l77.52 76.74v-2.82L93.13 0zM106.33 0l61.47 60.85v-2.81L109.17 0zM122.37 0l45.43 44.97v-2.8L125.21 0zM138.41 0l29.39 29.1v-2.82L141.26 0zM154.45 0l13.35 13.21V10.4L157.3 0z"/>
    </g>
</svg>
