<?xml version="1.0" encoding="UTF-8"?>
<svg width="97px" height="46px" viewBox="0 0 97 46" version="1.1" xmlns="http://www.w3.org/2000/svg" xmlns:xlink="http://www.w3.org/1999/xlink">
    <!-- Generator: Sketch 60.1 (88133) - https://sketch.com -->
    <title>Fill 1 Copy 4</title>
    <desc>Created with Sketch.</desc>
    <g id="Designs" stroke="none" stroke-width="1" fill="none" fill-rule="evenodd">
        <g id="Home_Master-3" transform="translate(-1165.000000, -971.000000)" fill="#9E9FB1">
            <g id="Client-Logos" transform="translate(0.000000, 856.000000)">
                <path d="M1204.61838,117.082439 C1204.60516,117.31022 1204.70628,117.463609 1204.90697,117.545671 C1205.62883,117.83941 1206.35613,117.833274 1207.07954,117.547205 C1207.26623,117.473579 1207.37435,117.330928 1207.37202,117.11465 C1207.36657,116.631477 1207.39069,116.14677 1207.35802,115.665898 C1207.34791,115.519412 1207.22578,115.310804 1207.09821,115.253284 C1206.36002,114.91813 1205.60082,114.908927 1204.86574,115.265555 C1204.74751,115.323842 1204.65572,115.518645 1204.63238,115.66283 C1204.59349,115.898281 1204.62149,116.143703 1204.62149,116.386056 C1204.62072,116.618439 1204.63161,116.850823 1204.61838,117.082439 M1204.61603,135.368622 C1204.61449,135.664662 1204.72106,135.844893 1204.99642,135.943828 C1205.67161,136.186949 1206.34602,136.183114 1207.01576,135.931557 C1207.25923,135.840291 1207.37513,135.67003 1207.37436,135.393931 C1207.36891,130.888918 1207.36891,126.383904 1207.37436,121.87889 C1207.37436,121.593588 1207.25845,121.420259 1207.0002,121.323625 C1206.3678,121.08664 1205.72528,121.092775 1205.08743,121.284511 C1204.69072,121.403387 1204.62072,121.52533 1204.62072,121.937178 C1204.62072,124.161308 1204.62072,126.386205 1204.62072,128.611102 C1204.62072,130.863609 1204.62538,133.116116 1204.61603,135.368622 M1215.8904,140.680458 C1215.88963,140.243302 1215.81417,140.123659 1215.39179,139.991745 C1214.77961,139.80001 1214.16277,139.801544 1213.55448,140.00555 C1213.16866,140.135163 1213.08932,140.264776 1213.08932,140.668954 C1213.08854,145.137155 1213.08854,149.604588 1213.08932,154.072789 C1213.08932,154.435552 1213.17644,154.582805 1213.52414,154.701681 C1214.15888,154.917191 1214.80373,154.919492 1215.4408,154.70935 C1215.8204,154.583572 1215.8904,154.463162 1215.8904,154.071255 C1215.89118,151.074048 1215.90129,148.076841 1215.88107,145.079634 C1215.87796,144.522068 1216.08954,144.104852 1216.49014,143.765097 C1216.73905,143.554188 1217.01286,143.361686 1217.30223,143.211365 C1218.18121,142.755035 1219.13643,142.590909 1220.12043,142.584774 C1220.37479,142.58324 1220.57314,142.516516 1220.67349,142.283366 C1220.98074,141.573178 1220.97996,140.856088 1220.67504,140.145133 C1220.5957,139.961067 1220.44791,139.862132 1220.22777,139.865967 C1218.77939,139.891276 1217.39324,140.148968 1216.1401,140.912075 C1216.07787,140.949655 1216.01097,140.978032 1215.8904,141.039387 C1215.8904,140.882164 1215.89118,140.780928 1215.8904,140.680458 M1260.55378,115.757164 C1260.55455,115.465726 1260.43476,115.296999 1260.18429,115.201132 C1259.50521,114.941139 1258.82147,114.944973 1258.14006,115.197297 C1257.9067,115.283961 1257.79547,115.435049 1257.79547,115.705012 C1257.80247,122.284602 1257.80247,128.864192 1257.79625,135.443783 C1257.79625,135.689971 1257.89659,135.830321 1258.10739,135.915452 C1258.80358,136.196919 1259.50521,136.190017 1260.20296,135.924655 C1260.44409,135.833389 1260.55378,135.661594 1260.55299,135.384728 C1260.54444,132.108355 1260.54755,128.832748 1260.54755,125.557141 C1260.54755,122.290738 1260.54366,119.023568 1260.55378,115.757164 M1197.45969,135.363254 C1197.45815,135.694572 1197.5935,135.867134 1197.88442,135.963769 C1198.53393,136.180046 1199.18112,136.175445 1199.82519,135.943828 C1200.08499,135.850262 1200.19856,135.686136 1200.19623,135.394698 C1200.18378,133.738105 1200.19078,132.080745 1200.19078,130.424151 C1200.19078,128.348041 1200.1939,126.272698 1200.18612,124.196587 C1200.18534,123.948098 1200.25535,123.854531 1200.52293,123.861434 C1201.23156,123.878307 1201.9402,123.858366 1202.64805,123.871404 C1202.90086,123.876006 1203.0681,123.786274 1203.16222,123.564627 C1203.46092,122.861342 1203.45392,122.154222 1203.17233,121.447869 C1203.08677,121.233126 1202.92731,121.150296 1202.68384,121.155665 C1201.98531,121.16947 1201.28602,121.161033 1200.58749,121.160266 C1200.19701,121.159499 1200.19078,121.154898 1200.19078,120.771427 C1200.19001,119.086457 1200.18534,117.401486 1200.19545,115.716516 C1200.19701,115.450388 1200.09355,115.295465 1199.85708,115.203432 C1199.23635,114.961846 1198.6055,114.951109 1197.97154,115.138242 C1197.54138,115.265555 1197.46671,115.377528 1197.46671,115.816219 L1197.46671,125.534133 C1197.46671,128.810507 1197.47137,132.08688 1197.45969,135.363254 M1244.5959,154.65183 C1245.90038,154.374964 1247.05628,153.815097 1247.88315,152.729875 C1248.89049,151.408435 1248.94416,149.284007 1247.50122,148.040795 C1246.87349,147.500101 1246.1563,147.103593 1245.38621,146.81599 C1244.25831,146.394939 1243.10707,146.033709 1241.9745,145.62493 C1241.49923,145.453135 1241.01306,145.275204 1240.58679,145.012143 C1239.74048,144.489856 1239.77548,143.343279 1240.63424,142.838631 C1240.88083,142.694447 1241.16708,142.584774 1241.44867,142.533389 C1243.14441,142.226612 1244.79659,142.36006 1246.37565,143.080218 C1246.65491,143.20753 1246.8696,143.162281 1247.06173,142.955207 C1247.45688,142.529554 1247.69102,142.033343 1247.71202,141.448167 C1247.72369,141.132954 1247.59223,140.937384 1247.29353,140.7955 C1245.48189,139.93039 1243.56523,139.75476 1241.59802,139.948029 C1240.53234,140.053867 1239.52423,140.355275 1238.63047,140.96346 C1236.92928,142.120007 1236.52168,144.297354 1237.72503,145.862681 C1238.29287,146.60278 1239.06374,147.100525 1239.91783,147.447182 C1241.00606,147.888941 1242.12618,148.252471 1243.22064,148.679657 C1243.8406,148.922011 1244.46989,149.169733 1245.03695,149.510255 C1245.91282,150.036376 1245.92294,151.112395 1245.10073,151.722881 C1244.92183,151.854794 1244.72114,151.97137 1244.51345,152.051898 C1243.40421,152.480619 1242.25531,152.538139 1241.09007,152.361743 C1239.89916,152.182278 1238.80549,151.732851 1237.76859,151.145374 C1237.55546,151.024197 1237.36177,150.996587 1237.1673,151.153043 C1236.65391,151.566424 1236.34199,152.097148 1236.30232,152.752883 C1236.29454,152.887865 1236.39722,153.091871 1236.51157,153.161663 C1238.32788,154.258389 1240.29587,154.861972 1242.78659,154.900319 C1243.16152,154.851234 1243.88882,154.801383 1244.5959,154.65183 M1256.00949,139.877471 C1254.6599,139.908915 1253.35931,140.135163 1252.19018,140.852253 C1249.95771,142.222011 1249.80836,145.031317 1251.88215,146.618886 C1252.55967,147.137338 1253.32275,147.502402 1254.1224,147.794607 C1255.14606,148.169641 1256.18296,148.511697 1257.19885,148.905905 C1257.66868,149.08767 1258.1315,149.318519 1258.54844,149.597686 C1259.08905,149.959682 1259.22985,150.565566 1258.98015,151.130802 C1258.78802,151.566424 1258.42476,151.828718 1257.99849,152.009717 C1256.87059,152.487521 1255.69212,152.538139 1254.49888,152.366344 C1253.30797,152.193783 1252.21274,151.744355 1251.17663,151.15381 C1250.89971,150.99582 1250.68268,151.024197 1250.46021,151.221301 C1250.06973,151.568725 1249.81692,152.000513 1249.70491,152.502093 C1249.6069,152.936182 1249.67691,153.052757 1250.06662,153.264433 C1250.20741,153.341127 1250.34509,153.422423 1250.48744,153.496049 C1252.92449,154.773006 1255.48444,155.253112 1258.20229,154.602745 C1259.43287,154.307473 1260.51099,153.74147 1261.28885,152.711468 C1262.22929,151.464421 1262.30241,149.45887 1261.11228,148.254772 C1260.59655,147.732484 1259.99371,147.323705 1259.31619,147.057576 C1258.12606,146.590509 1256.91026,146.186331 1255.71079,145.739971 C1255.13129,145.52446 1254.53,145.331958 1254.00105,145.024414 C1253.10262,144.499827 1253.1734,143.274254 1254.09828,142.791848 C1254.32075,142.67604 1254.56656,142.582473 1254.81314,142.536457 C1256.5081,142.226612 1258.16106,142.357759 1259.7409,143.070248 C1260.04194,143.205996 1260.2613,143.158446 1260.47287,142.932965 C1260.84469,142.53569 1261.05549,142.065555 1261.11306,141.533297 C1261.15506,141.14139 1261.03138,140.969595 1260.65956,140.790898 C1259.35275,140.162773 1257.96582,139.892043 1256.51977,139.876704 C1256.34942,139.876704 1256.17985,139.873636 1256.00949,139.877471 M1225.36245,135.395465 C1225.36011,135.68767 1225.48146,135.850262 1225.73816,135.943828 C1226.37211,136.175445 1227.01307,136.18158 1227.6517,135.972972 C1228.03908,135.846427 1228.1192,135.721415 1228.1192,135.31647 C1228.1192,132.514833 1228.1262,129.713197 1228.11453,126.910793 C1228.11142,126.296473 1228.32844,125.787991 1228.72204,125.333961 C1229.11642,124.879165 1229.60569,124.552448 1230.16031,124.319298 C1231.19176,123.885209 1232.26521,123.783973 1233.37289,123.917421 C1234.381,124.03783 1235.29888,124.359179 1236.06274,125.037922 C1236.66636,125.573247 1236.9954,126.221312 1236.99073,127.049609 C1236.97595,129.822869 1236.99462,132.596896 1236.98528,135.370923 C1236.98451,135.686903 1237.10663,135.854863 1237.38977,135.954566 C1237.99806,136.168542 1238.61024,136.174678 1239.2232,135.989078 C1239.64013,135.862533 1239.71325,135.754394 1239.71325,135.328741 C1239.71403,132.824678 1239.71636,130.320614 1239.7117,127.816551 C1239.71092,127.239811 1239.73581,126.657702 1239.66347,126.088632 C1239.47056,124.570088 1238.62891,123.431947 1237.37344,122.58601 C1235.59135,121.38498 1233.60702,120.978501 1231.47723,121.213952 C1230.02418,121.37501 1228.68781,121.852047 1227.51713,122.726361 C1226.10764,123.779371 1225.33133,125.150662 1225.36323,126.934568 C1225.38734,128.246805 1225.36789,129.559041 1225.36789,130.871278 C1225.36789,132.379852 1225.37489,133.887659 1225.36245,135.395465 M1179.38371,127.747526 C1179.37282,127.07952 1179.39227,126.40001 1179.27326,125.74811 C1179.03756,124.460415 1178.27059,123.474128 1177.21503,122.714856 C1175.4065,121.414124 1173.36538,120.979268 1171.16247,121.212418 C1169.67675,121.368874 1168.32016,121.871988 1167.12847,122.764708 C1165.85278,123.720317 1165.05002,124.973499 1165.02591,126.573339 C1164.98157,129.523762 1165.01502,132.474953 1165.01035,135.426143 C1165.01035,135.653158 1165.10525,135.804245 1165.30205,135.890143 C1166.02157,136.206122 1166.74887,136.198453 1167.47384,135.91085 C1167.68231,135.82802 1167.78966,135.671564 1167.78966,135.432279 C1167.78266,132.629875 1167.78966,129.827471 1167.77177,127.025067 C1167.7671,126.277299 1168.03779,125.669115 1168.55974,125.150662 C1168.95801,124.754154 1169.42861,124.466551 1169.95367,124.263311 C1171.02479,123.846862 1172.13558,123.770168 1173.26193,123.940429 C1174.08257,124.064673 1174.85499,124.335404 1175.51384,124.853856 C1176.2357,125.42216 1176.64952,126.118542 1176.64019,127.078753 C1176.61141,129.843577 1176.63474,132.6084 1176.62463,135.373224 C1176.62385,135.664662 1176.74131,135.836457 1176.99256,135.931557 C1177.65219,136.180046 1178.31882,136.185415 1178.98622,135.954566 C1179.26703,135.857931 1179.39771,135.689204 1179.39466,135.372457 C1179.37982,133.873854 1179.3876,132.374483 1179.3876,130.875113 C1179.3876,129.832839 1179.40005,128.789799 1179.38371,127.747526 M1187.76597,145.124884 C1186.03522,143.42074 1184.30525,141.716596 1182.57529,140.011686 C1182.28748,139.729451 1182.16769,139.694172 1181.79664,139.862899 C1181.16346,140.149735 1180.70063,140.612968 1180.41983,141.24416 C1180.30237,141.507988 1180.34437,141.725033 1180.56918,141.944378 C1182.3217,143.65389 1184.06256,145.37414 1185.80575,147.091321 C1185.87654,147.161113 1185.9411,147.235506 1186.06634,147.368954 C1185.95433,147.443348 1185.85554,147.489364 1185.7832,147.561457 C1184.04389,149.269435 1182.31003,150.984316 1180.56606,152.68846 C1180.34126,152.907038 1180.30392,153.127917 1180.4206,153.389444 C1180.7053,154.02984 1181.17513,154.496141 1181.82231,154.781443 C1182.09379,154.901853 1182.32715,154.870408 1182.56051,154.638792 C1184.29048,152.920843 1186.03211,151.215165 1187.77064,149.505653 C1187.84842,149.429726 1187.93088,149.3584 1188.05611,149.244126 C1188.15257,149.363769 1188.21946,149.468073 1188.30581,149.552436 C1190.028,151.252745 1191.75485,152.946919 1193.47082,154.652597 C1193.68707,154.86734 1193.91031,154.900319 1194.15923,154.796015 C1194.81264,154.522984 1195.28402,154.055916 1195.58505,153.424723 C1195.71807,153.14479 1195.67995,152.91164 1195.43648,152.673888 C1193.69718,150.97818 1191.97188,149.269435 1190.24191,147.564524 C1190.16334,147.487063 1190.09023,147.405767 1189.95332,147.263116 C1190.06533,147.184121 1190.16723,147.129669 1190.2458,147.052207 C1191.98043,145.351898 1193.70962,143.646221 1195.44737,141.949746 C1195.65895,141.743439 1195.72196,141.531763 1195.60917,141.273304 C1195.31669,140.60223 1194.82664,140.119057 1194.14601,139.82992 C1193.89942,139.724849 1193.69096,139.767798 1193.48482,139.974105 C1192.39115,141.068531 1191.28269,142.149151 1190.18201,143.235907 C1189.46871,143.940726 1188.7593,144.647846 1188.03044,145.371839 C1187.92699,145.275971 1187.84531,145.202345 1187.76597,145.124884 M1220.78939,128.632576 C1220.78939,128.287453 1220.79328,127.943096 1220.78861,127.598739 C1220.78316,127.217569 1220.81817,126.82873 1220.74894,126.458297 C1220.59881,125.64764 1220.0652,125.083938 1219.38457,124.653684 C1218.26211,123.94503 1217.00897,123.780138 1215.71383,123.889044 C1214.83095,123.96267 1213.98697,124.201956 1213.25033,124.713506 C1212.3978,125.304817 1211.88596,126.064089 1211.92719,127.150845 C1211.96919,128.229932 1211.94041,129.311319 1211.93497,130.391173 C1211.93341,130.874346 1212.05709,131.323774 1212.37213,131.687304 C1212.6506,132.010186 1212.95163,132.334602 1213.30323,132.572354 C1214.46769,133.361537 1215.79084,133.504955 1217.15677,133.366138 C1218.13298,133.267203 1219.03608,132.950456 1219.79294,132.31006 C1220.42924,131.772434 1220.83295,131.121301 1220.79406,130.252356 C1220.76994,129.713197 1220.78939,129.172503 1220.78939,128.632576 M1223.53447,128.64408 C1223.53447,129.184007 1223.51658,129.724701 1223.53758,130.263861 C1223.61303,132.192718 1222.72549,133.623064 1221.17054,134.694481 C1219.99286,135.506672 1218.66504,135.930023 1217.23766,136.067306 C1215.34512,136.249838 1213.56848,135.890143 1211.93341,134.933767 C1210.64527,134.179096 1209.69783,133.136823 1209.32757,131.66813 C1209.23734,131.310736 1209.18522,130.935701 1209.179,130.568336 C1209.16111,129.38648 1209.19066,128.203089 1209.16811,127.021232 C1209.13155,125.083171 1209.9942,123.622148 1211.58415,122.554566 C1212.99597,121.606626 1214.57115,121.163334 1216.27856,121.154898 C1218.27222,121.14416 1220.0862,121.669515 1221.63726,122.925765 C1222.88417,123.93506 1223.58114,125.225056 1223.5368,126.85634 C1223.52124,127.452253 1223.53447,128.048167 1223.53447,128.64408 M1188.13468,133.544069 C1188.13545,133.52873 1188.13623,133.513391 1188.13701,133.498052 C1188.64651,133.498052 1189.15679,133.511857 1189.66629,133.494985 C1190.49549,133.468909 1191.2578,133.257233 1191.92209,132.727276 C1192.80808,132.020156 1192.91309,130.493176 1191.87853,129.741573 C1191.27647,129.304417 1190.61373,129.013746 1189.87787,128.971564 C1188.87131,128.914044 1187.86009,128.895637 1186.85198,128.92248 C1186.01344,128.943954 1185.22858,129.184774 1184.51528,129.660278 C1183.35548,130.434121 1183.42938,132.098384 1184.47405,132.793233 C1184.87076,133.057828 1185.33437,133.297881 1185.79797,133.376876 C1186.56417,133.506489 1187.35448,133.495752 1188.13468,133.544069 M1192.56072,126.982118 C1192.72329,126.137716 1192.55528,125.455905 1191.87542,124.924415 C1191.14812,124.356111 1190.31036,124.0455 1189.41348,123.944263 C1187.95499,123.778604 1186.49494,123.785507 1185.06834,124.208858 C1184.81631,124.284019 1184.57128,124.384488 1184.3317,124.493394 C1184.11857,124.590028 1183.92255,124.578524 1183.7483,124.435873 C1183.15324,123.947331 1182.80865,123.329943 1182.78609,122.555333 C1182.77986,122.335987 1182.88176,122.194103 1183.08479,122.095935 C1184.15824,121.578249 1185.29625,121.29985 1186.48249,121.225456 C1187.19735,121.180974 1187.91843,121.137258 1188.63173,121.174838 C1190.54683,121.276074 1192.33514,121.772285 1193.83953,123.009362 C1194.83053,123.824621 1195.33069,124.876097 1195.31902,126.164559 C1195.30424,127.821919 1195.28013,129.480046 1195.32447,131.135873 C1195.38125,133.276406 1194.31558,134.669172 1192.43237,135.549621 C1191.55183,135.960701 1190.61451,136.165474 1189.63751,136.169309 C1188.57028,136.173911 1187.50072,136.211491 1186.43582,136.157805 C1184.64207,136.067306 1183.05989,135.466791 1181.88065,134.063288 C1181.27703,133.344664 1180.95577,132.507164 1180.98922,131.566894 C1181.01022,130.966379 1180.99545,130.345156 1181.14868,129.772251 C1181.47305,128.55895 1182.35204,127.755962 1183.43249,127.161583 C1184.50828,126.568737 1185.67663,126.262727 1186.90176,126.252757 C1188.08878,126.24202 1189.28203,126.265028 1190.46204,126.375468 C1191.08745,126.433755 1191.69262,126.709854 1192.30714,126.890085 C1192.38492,126.912327 1192.46038,126.945305 1192.56072,126.982118 M1248.44944,133.542535 C1248.45022,133.527963 1248.45099,133.513391 1248.45255,133.498052 C1248.95271,133.498052 1249.45288,133.509556 1249.95227,133.495752 C1250.79081,133.472743 1251.564,133.270271 1252.24308,132.741081 C1253.12595,132.054669 1253.23019,130.480905 1252.22363,129.748476 C1251.61379,129.305184 1250.94249,129.012979 1250.19652,128.970797 C1249.19074,128.913277 1248.17874,128.897171 1247.17141,128.92248 C1246.36243,128.943187 1245.60323,129.175571 1244.90627,129.620397 C1243.68347,130.401143 1243.72314,132.065406 1244.81604,132.797835 C1245.21275,133.063197 1245.67791,133.300181 1246.14152,133.379176 C1246.89838,133.507256 1247.67857,133.494985 1248.44944,133.542535 M1252.88948,126.982118 C1252.98283,126.264261 1252.97038,125.631535 1252.41576,125.110781 C1251.76158,124.496461 1250.97049,124.153638 1250.10473,124.010987 C1248.46033,123.73949 1246.81981,123.767867 1245.21275,124.270981 C1245.03384,124.326967 1244.85804,124.401361 1244.6908,124.485724 C1244.47144,124.595397 1244.26142,124.58466 1244.08096,124.433572 C1243.489,123.934293 1243.12341,123.317672 1243.11952,122.526956 C1243.11796,122.328318 1243.20586,122.198705 1243.38788,122.10974 C1244.29253,121.666448 1245.24931,121.379611 1246.25042,121.286812 C1247.15041,121.204749 1248.06206,121.136491 1248.96205,121.17944 C1250.93627,121.273007 1252.77825,121.79376 1254.29664,123.122102 C1255.23241,123.940429 1255.6719,124.984236 1255.66801,126.216711 C1255.66257,127.837258 1255.6299,129.458572 1255.67501,131.077585 C1255.74658,133.610026 1254.2243,134.936067 1252.56356,135.639353 C1251.7398,135.988311 1250.87326,136.165474 1249.97483,136.169309 C1248.9076,136.173144 1247.83726,136.213025 1246.77236,136.157805 C1244.97005,136.062704 1243.37699,135.466024 1242.19464,134.047182 C1241.61046,133.346965 1241.31798,132.527871 1241.31643,131.622881 C1241.31565,131.094458 1241.30865,130.553764 1241.41133,130.039914 C1241.67736,128.710037 1242.56723,127.832656 1243.71925,127.187659 C1244.81604,126.574105 1246.01084,126.258893 1247.26708,126.251223 C1248.43621,126.242787 1249.61001,126.26196 1250.77214,126.371633 C1251.39832,126.429921 1252.00427,126.702185 1252.61879,126.880115 C1252.69813,126.903123 1252.77358,126.937636 1252.88948,126.982118 M1176.35549,144.578822 C1176.0669,144.106386 1175.7402,143.743622 1175.31782,143.488231 C1173.51162,142.393805 1171.61363,142.333984 1169.7102,143.153844 C1168.45006,143.696072 1167.65897,144.619469 1167.80132,146.098132 C1167.84022,146.501544 1167.80677,146.911857 1167.80677,147.37509 C1170.67942,146.435587 1173.49995,145.512956 1176.35549,144.578822 M1168.0658,150.191299 C1168.40728,150.781843 1168.87011,151.182187 1169.42161,151.485129 C1170.30916,151.974437 1171.27526,152.156202 1172.28104,152.140097 C1173.55129,152.120156 1174.71653,151.775033 1175.73475,151.004256 C1176.28626,150.587807 1176.6923,150.05555 1176.98789,149.442764 C1177.11391,149.182771 1177.30915,149.082301 1177.57673,149.112212 C1178.28926,149.192741 1178.8921,149.489547 1179.36115,150.031775 C1179.54862,150.248819 1179.58673,150.468164 1179.44439,150.745797 C1178.37093,152.824208 1176.63085,154.071255 1174.3766,154.617317 C1171.78476,155.246209 1169.35005,154.845099 1167.16581,153.290509 C1166.07369,152.513597 1165.33783,151.473625 1165.08969,150.142214 C1165.04224,149.88759 1165.01113,149.626063 1165.00879,149.367604 C1165.00024,148.15737 1165.02357,146.947137 1165.00102,145.736903 C1164.96834,143.951463 1165.72521,142.559465 1167.13469,141.488048 C1170.15358,139.194126 1174.92655,139.366688 1177.75564,141.892226 C1178.79176,142.81639 1179.38216,143.976006 1179.39071,145.382576 C1179.3946,146.075124 1178.99711,146.615818 1178.33282,146.832862 C1175.05646,147.901979 1171.7801,148.971862 1168.50373,150.040978 C1168.37072,150.084694 1168.23926,150.131477 1168.0658,150.191299 M1232.1882,144.580355 C1231.8615,144.028158 1231.43834,143.637784 1230.92806,143.340211 C1229.77138,142.667604 1228.50968,142.531855 1227.20521,142.679108 C1226.19865,142.791848 1225.27533,143.125475 1224.51691,143.814181 C1223.95218,144.326498 1223.59825,144.936216 1223.63248,145.726933 C1223.6527,146.172526 1223.63559,146.620419 1223.63715,147.066779 C1223.63792,147.154211 1223.64881,147.240875 1223.65815,147.369721 C1226.5168,146.43482 1229.33189,145.51449 1232.1882,144.580355 M1223.83628,150.217375 C1224.15754,150.550994 1224.40723,150.864673 1224.71138,151.114696 C1225.42779,151.703707 1226.28733,151.985174 1227.19976,152.092546 C1228.52602,152.248235 1229.79627,152.058034 1230.97084,151.398464 C1231.74482,150.964376 1232.34766,150.367695 1232.75682,149.580813 C1233.01118,149.090738 1233.12708,149.04012 1233.68092,149.15286 C1234.27988,149.274804 1234.79015,149.56164 1235.18998,150.023338 C1235.386,150.248819 1235.42333,150.4743 1235.27398,150.76267 C1234.18887,152.847984 1232.43323,154.097331 1230.16809,154.628055 C1227.46812,155.260781 1224.94707,154.820557 1222.74649,153.088036 C1221.47313,152.086411 1220.82439,150.7527 1220.83839,149.126017 C1220.84695,148.046164 1220.86717,146.965543 1220.8345,145.886457 C1220.76994,143.748224 1221.75861,142.20207 1223.54847,141.097675 C1226.41956,139.326807 1230.51657,139.508572 1233.15742,141.523327 C1234.24176,142.35009 1234.98618,143.402333 1235.17597,144.765188 C1235.22965,145.150193 1235.21953,145.570477 1235.11686,145.941676 C1234.99162,146.398773 1234.62758,146.689444 1234.15075,146.843599 C1230.8635,147.908114 1227.57858,148.981832 1224.29289,150.053249 C1224.17154,150.09313 1224.05097,150.139914 1223.83628,150.217375 M1199.64395,147.360518 C1199.64395,147.937258 1199.65017,148.513998 1199.64239,149.090738 C1199.63461,149.62683 1199.78552,150.123808 1200.15345,150.502677 C1200.51437,150.873109 1200.91731,151.229737 1201.36458,151.486663 C1202.35713,152.0565 1203.46637,152.183045 1204.59349,152.097915 C1205.60549,152.021221 1206.5576,151.74052 1207.37202,151.110861 C1208.10399,150.544092 1208.51548,149.830836 1208.48903,148.879062 C1208.4587,147.846759 1208.4657,146.812922 1208.4867,145.780619 C1208.50381,144.978398 1208.19267,144.336468 1207.60771,143.804978 C1206.7474,143.024231 1205.70117,142.697514 1204.5616,142.618519 C1203.24701,142.52802 1201.9962,142.730493 1200.89708,143.499735 C1200.07099,144.076475 1199.57316,144.830378 1199.6385,145.881088 C1199.66961,146.372697 1199.64395,146.867375 1199.64395,147.360518 M1199.64395,153.705424 L1199.64395,154.118038 C1199.64395,156.147365 1199.64395,158.176692 1199.64317,160.206786 C1199.64317,160.603295 1199.56927,160.722938 1199.19434,160.845648 C1198.56583,161.051189 1197.93031,161.054256 1197.30335,160.837979 C1196.9432,160.713734 1196.86775,160.58949 1196.86775,160.215989 C1196.86775,155.281489 1196.85919,150.347755 1196.87242,145.413254 C1196.87631,143.722148 1197.69851,142.434453 1199.03177,141.428993 C1201.98143,139.204863 1206.81118,139.366688 1209.52826,141.784854 C1210.67561,142.80642 1211.27923,144.068805 1211.25589,145.610358 C1211.24034,146.699414 1211.22322,147.790005 1211.25978,148.878295 C1211.33135,151.025731 1210.35046,152.602562 1208.52481,153.64867 C1205.76729,155.229337 1202.91797,155.261548 1200.0461,153.911731 C1199.9302,153.857278 1199.81896,153.795923 1199.64395,153.705424" id="Fill-1-Copy-4"></path>
            </g>
        </g>
    </g>
</svg>