<svg xmlns="http://www.w3.org/2000/svg" width="32" height="32" viewBox="0 0 32 32">
    <g fill="none" fill-rule="evenodd" stroke="#3D63FF" stroke-linecap="round" stroke-linejoin="round" stroke-width="1.2">
        <path d="M25.527 7.437h3.29V5.792c0-1.21-.983-2.192-2.194-2.192"/>
        <path d="M24.43 5.793c0-1.211.982-2.192 2.193-2.192H7.986a2.192 2.192 0 0 0-2.193 2.192v20.283A2.192 2.192 0 0 1 3.6 28.268h18.639a2.191 2.191 0 0 0 2.192-2.192V5.793zM16.756 11.274h3.838M16.756 8.533h3.838M9.082 15.66h11.512M9.082 18.4h11.512M9.082 21.142h7.674"/>
        <path d="M15.111 13.467V12.37c0-.715-1.508-1.645-2.74-1.645-1.233 0-2.74.93-2.74 1.645v1.096"/>
        <path d="M12.371 6.889c-.85 0-1.645.619-1.645 1.382v1.074c0 .763.794 1.38 1.645 1.38.85 0 1.645-.617 1.645-1.38V8.27c0-.763-.795-1.382-1.645-1.382z"/>
    </g>
</svg>
