<?xml version="1.0" encoding="UTF-8"?>
<svg width="415px" height="293px" viewBox="0 0 415 293" version="1.1" xmlns="http://www.w3.org/2000/svg" xmlns:xlink="http://www.w3.org/1999/xlink">
    <!-- Generator: Sketch 61 (89581) - https://sketch.com -->
    <title>Fill 1</title>
    <desc>Created with Sketch.</desc>
    <defs>
        <rect id="path-1" x="0" y="0" width="614" height="329"></rect>
    </defs>
    <g id="Designs" stroke="none" stroke-width="1" fill="none" fill-rule="evenodd">
        <g id="Solutions_Bus-&amp;-Coach_V2" transform="translate(0.000000, -1463.000000)">
            <g id="Fill-1" transform="translate(-199.000000, 1427.000000)">
                <mask id="mask-2" fill="white">
                    <use xlink:href="#path-1"></use>
                </mask>
                <g id="Mask"></g>
                <path d="M607.168,36 L605.391,37.052 L614.03,45.69 L614.03,42.862 L607.168,36 Z M595.292,43.033 L614.03,61.771 L614.03,58.943 L597.068,41.981 L595.292,43.033 Z M585.193,49.013 L614.03,77.851 L614.03,75.022 L586.968,47.961 L585.193,49.013 Z M575.092,54.995 L614.03,93.932 L614.03,91.103 L576.869,53.942 L575.092,54.995 Z M564.992,60.975 L614.03,110.012 L614.03,107.184 L566.769,59.922 L564.992,60.975 Z M554.892,66.955 L614.03,126.093 L614.03,123.264 L556.669,65.903 L554.892,66.955 Z M544.793,72.935 L614.03,142.173 L614.03,139.345 L546.569,71.884 L544.793,72.935 Z M534.693,78.916 L614.03,158.253 L614.03,155.425 L536.469,77.864 L534.693,78.916 Z M524.593,84.896 L614.03,174.334 L614.03,171.506 L526.37,83.845 L524.593,84.896 Z M514.493,90.877 L614.03,190.414 L614.03,187.586 L516.27,89.825 L514.493,90.877 Z M504.393,96.858 L614.03,206.495 L614.03,203.667 L506.17,95.807 L504.393,96.858 Z M494.293,102.839 L614.03,222.575 L614.03,219.747 L496.069,101.787 L494.293,102.839 Z M484.194,108.819 L614.03,238.656 L614.03,235.827 L485.97,107.768 L484.194,108.819 Z M474.094,114.799 L614.03,254.736 L614.03,251.908 L475.871,113.748 L474.094,114.799 Z M463.993,120.78 L614.03,270.817 L614.03,267.988 L465.771,119.729 L463.993,120.78 Z M453.894,126.761 L614.03,286.897 L614.03,284.07 L455.67,125.709 L453.894,126.761 Z M443.794,132.742 L614.03,302.978 L614.03,300.149 L445.57,131.69 L443.794,132.742 Z M433.695,138.722 L614.03,319.059 L614.03,316.229 L435.471,137.67 L433.695,138.722 Z M423.594,144.703 L614.03,335.138 L614.03,332.311 L425.37,143.652 L423.594,144.703 Z M413.494,150.683 L614.03,351.22 L614.03,348.391 L415.271,149.632 L413.494,150.683 Z M403.395,156.664 L614.03,367.3 L614.03,364.472 L405.171,155.613 L403.395,156.664 Z M393.295,162.644 L614.03,383.38 L614.03,380.552 L395.071,161.592 L393.295,162.644 Z M383.194,168.625 L614.03,399.461 L614.03,396.632 L384.971,167.573 L383.194,168.625 Z M373.095,174.606 L614.03,415.541 L614.03,412.713 L374.871,173.554 L373.095,174.606 Z M362.995,180.587 L614.03,431.622 L614.03,428.793 L364.772,179.535 L362.995,180.587 Z M352.895,186.567 L614.03,447.702 L614.03,444.875 L354.672,185.515 L352.895,186.567 Z M342.795,192.548 L614.03,463.783 L614.03,460.954 L344.571,191.496 L342.795,192.548 Z M332.695,198.528 L614.03,479.863 L614.03,477.035 L334.472,197.476 L332.695,198.528 Z M322.596,204.51 L614.03,495.943 L614.03,493.115 L324.372,203.457 L322.596,204.51 Z M312.495,210.49 L614.03,512.024 L614.03,509.197 L314.273,209.437 L312.495,210.49 Z M302.396,216.471 L614.03,528.105 L614.03,525.276 L304.172,215.418 L302.396,216.471 Z M292.296,222.451 L614.03,544.186 L614.03,541.356 L294.072,221.399 L292.296,222.451 Z M282.196,228.432 L614.03,560.265 L614.03,557.437 L283.973,227.38 L282.196,228.432 Z M272.096,234.412 L614.03,576.346 L614.03,573.518 L273.872,233.36 L272.096,234.412 Z M261.996,240.393 L614.03,592.427 L614.03,589.599 L263.772,239.341 L261.996,240.393 Z M251.897,246.373 L614.03,608.507 L614.03,605.678 L253.673,245.321 L251.897,246.373 Z M241.797,252.355 L614.03,624.588 L614.03,621.759 L243.573,251.302 L241.797,252.355 Z M231.696,258.335 L614.03,640.668 L614.03,637.84 L233.473,257.283 L231.696,258.335 Z M221.596,264.316 L614.03,656.749 L614.03,653.92 L223.373,263.263 L221.596,264.316 Z M211.497,270.296 L614.03,672.829 L614.03,670.001 L213.273,269.244 L211.497,270.296 Z M201.397,276.277 L614.03,688.909 L614.03,686.081 L203.174,275.224 L201.397,276.277 Z M191.297,282.258 L600.522,691.483 L607.457,695.589 L607.457,695.589 L193.074,281.205 L191.297,282.258 Z M181.197,288.238 L561.095,668.136 L568.031,672.242 L182.974,287.185 L181.197,288.238 Z M171.097,294.219 L521.668,644.789 L528.603,648.896 L172.874,293.167 L171.097,294.219 Z M160.998,300.199 L482.24,621.442 L489.176,625.549 L162.774,299.147 L160.998,300.199 Z M150.898,306.18 L442.814,598.096 L449.748,602.202 L152.674,305.128 L150.898,306.18 Z M140.798,312.16 L403.386,574.748 L410.32,578.856 L142.575,311.108 L140.798,312.16 Z M130.698,318.141 L363.958,551.401 L370.894,555.508 L132.475,317.089 L130.698,318.141 Z M120.597,324.122 L324.531,528.054 L331.466,532.161 L122.374,323.07 L120.597,324.122 Z M110.499,330.103 L285.104,504.708 L292.038,508.814 L112.274,329.051 L110.499,330.103 Z M100.399,336.083 L245.676,481.361 L252.611,485.468 L102.175,335.031 L100.399,336.083 Z M90.299,342.063 L206.25,458.014 L213.184,462.121 L92.076,341.012 L90.299,342.063 Z M80.198,348.043 L166.821,434.667 L173.757,438.773 L81.975,346.992 L80.198,348.043 Z M70.098,354.024 L127.394,411.321 L134.33,415.427 L71.875,352.973 L70.098,354.024 Z M60,360.005 L87.967,387.974 L94.902,392.08 L61.775,358.953 L60,360.005 Z" fill="#FFEEF2" mask="url(#mask-2)"></path>
            </g>
        </g>
    </g>
</svg>