<svg xmlns="http://www.w3.org/2000/svg" width="77" height="77" viewBox="0 0 77 77">
    <g fill="none" fill-rule="evenodd">
        <path fill="#99D94F" d="M77.277 38.64c0 21.339-17.3 38.637-38.638 38.637C17.3 77.277 0 59.979 0 38.639S17.3 0 38.64 0c21.337 0 38.637 17.3 38.637 38.64"/>
        <g fill="#171B23" fill-rule="nonzero">
            <path d="M18.448 22.09a.888.888 0 0 1 1.073.653l1.315 5.39 3.04 12.304c.682 2.722 1.171 4.625 1.42 5.512.996 3.536 3.125 5.44 6.801 5.563l.386.007h7.814a.888.888 0 0 1 .144 1.765l-.144.012h-7.814c-4.61 0-7.484-2.33-8.78-6.473l-.117-.393c-.227-.809-.645-2.424-1.22-4.71l-1.656-6.653-2.916-11.904a.888.888 0 0 1 .654-1.073zM24.485 18.65c.427 2.241 2.246 4.06 4.486 4.486a5.705 5.705 0 0 0 6.7-6.7c-.425-2.241-2.246-4.062-4.486-4.485a5.706 5.706 0 0 0-6.7 6.698zm6.37-4.953c1.522.288 2.781 1.547 3.07 3.07a3.928 3.928 0 0 1-4.622 4.623c-1.523-.289-2.782-1.548-3.072-3.072a3.927 3.927 0 0 1 4.372-4.66l.251.04z"/>
            <path d="M32.483 51.519c.441 0 .808.322.877.744l.011.144v8.415a.888.888 0 0 1-1.765.144l-.012-.144v-8.415c0-.49.398-.888.889-.888zM47.639 41.581a4.503 4.503 0 0 1 3.154 2.305l.135.268 6.425 16.343a.888.888 0 0 1-1.59.78l-.063-.13-6.404-16.292a2.72 2.72 0 0 0-1.977-1.526.888.888 0 0 1 .176-1.762l.144.014z"/>
            <path d="M30.078 25.07c2.618 0 4.3 1.515 5.95 5.052l.196.426 1.412 2.433 1.29 2.192 3.981 1.106c3.35.932 2.936 5.847-.418 6.178l-.389.019h-5.572c-.443 0-.87-.151-1.213-.425l-.164-.146-4.499-4.499a.888.888 0 0 1 1.134-1.359l.123.103 4.498 4.498a.174.174 0 0 0 .077.045l.044.006 5.654-.002c1.462-.048 1.725-2.12.414-2.65l-.165-.056-4.324-1.203a.888.888 0 0 1-.527-.403l-2.653-4.524c-.166-.29-.272-.48-.32-.574l-.018-.04c-1.398-3.128-2.565-4.31-4.3-4.395l-.211-.006-1.033-.001c-2.082.13-3 1.598-2.596 3.67l.077.34 1.989 7.347 1.441 5.29c.629 2.191 1.478 3.134 3.453 3.212l.276.006h9.618c.278 0 .538.13.705.347l.075.116 7.213 13.224a.888.888 0 0 1-1.481.972l-.08-.12-6.96-12.763h-9.09c-2.984 0-4.472-1.42-5.342-4.19l-.176-.611-3.39-12.501c-.744-3.099.689-5.738 3.906-6.088l.307-.026h1.088z"/>
        </g>
    </g>
</svg>
