<svg xmlns="http://www.w3.org/2000/svg" width="77" height="77" viewBox="0 0 77 77">
    <g fill="none" fill-rule="evenodd">
        <path fill="#58c2f9" d="M77.277 38.64c0 21.339-17.3 38.637-38.638 38.637C17.3 77.277 0 59.979 0 38.639S17.3 0 38.64 0c21.337 0 38.637 17.3 38.637 38.64"/>
        <g fill="#171B23" fill-rule="nonzero">
            <path d="M58.896 41.648l.144.01c.485.076.817.53.742 1.015-.92 5.903-4.681 11.067-10.145 14.096a.888.888 0 1 1-.862-1.554c4.996-2.77 8.418-7.468 9.25-12.816a.889.889 0 0 1 .871-.751zM18.016 41.658a.888.888 0 0 1 1.015.741c.832 5.348 4.255 10.046 9.25 12.816a.888.888 0 0 1-.861 1.554c-5.464-3.03-9.226-8.193-10.145-14.096a.888.888 0 0 1 .741-1.015zM38.524 16.288c3.353 0 6.596.817 9.527 2.362a.888.888 0 1 1-.828 1.572 18.575 18.575 0 0 0-8.699-2.157c-3.063 0-6.023.745-8.7 2.157a.888.888 0 1 1-.828-1.572 20.348 20.348 0 0 1 9.528-2.362zM53.082 29.874c-3.39 0-7.683 2.24-7.683 4.339v3.342c0 .295.147.572.393.737 2.288 1.54 4.389 2.092 7.29 2.092 2.9 0 5.001-.552 7.288-2.092a.888.888 0 0 0 .392-.737v-3.342c0-2.098-4.292-4.34-7.68-4.34zm.274 1.783c2.498.118 5.63 1.78 5.63 2.556l-.001 2.858-.339.205c-1.691.978-3.318 1.332-5.564 1.332l-.473-.006c-2.007-.048-3.521-.418-5.093-1.326l-.34-.205v-2.858c0-.804 3.368-2.562 5.906-2.562l.274.006z"/>
            <path d="M53.082 20.17c-2.521 0-4.771 1.976-4.771 4.382v2.715c0 2.407 2.25 4.384 4.77 4.384 2.52 0 4.77-1.977 4.77-4.384v-2.715c0-2.406-2.25-4.382-4.77-4.382zm0 1.777c1.586 0 2.992 1.236 2.992 2.605v2.715c0 1.37-1.406 2.607-2.992 2.607-1.588 0-2.995-1.236-2.995-2.607v-2.715c0-1.37 1.407-2.605 2.995-2.605zM38.525 50.252c-3.39 0-7.68 2.24-7.68 4.338v3.343c0 .269.122.523.331.692 1.92 1.544 4.273 2.137 7.35 2.137 3.076 0 5.43-.593 7.349-2.137a.888.888 0 0 0 .331-.692V54.59c0-2.097-4.29-4.338-7.68-4.338zm.275 1.783c2.499.118 5.63 1.78 5.63 2.555l-.001 2.898-.27.185c-1.453.93-3.264 1.312-5.634 1.312l-.499-.005c-2.127-.052-3.785-.443-5.134-1.307l-.27-.184V54.59c0-.803 3.366-2.561 5.903-2.561l.275.006z"/>
            <path d="M38.525 40.548c-2.52 0-4.77 1.976-4.77 4.382v2.715c0 2.407 2.25 4.383 4.77 4.383 2.522 0 4.77-1.976 4.77-4.383V44.93c0-2.406-2.249-4.382-4.77-4.382zm0 1.777c1.587 0 2.993 1.235 2.993 2.605v2.715c0 1.371-1.405 2.607-2.993 2.607-1.587 0-2.992-1.236-2.992-2.607V44.93c0-1.37 1.406-2.605 2.992-2.605zM23.97 29.874c-3.39 0-7.681 2.24-7.681 4.339v3.342c0 .295.147.571.392.737 2.287 1.54 4.388 2.092 7.288 2.092 2.901 0 5.002-.552 7.29-2.092a.888.888 0 0 0 .391-.737v-3.342c0-2.098-4.29-4.34-7.68-4.34zm.274 1.783c2.499.118 5.63 1.78 5.63 2.556l-.001 2.858-.339.205c-1.692.978-3.318 1.332-5.565 1.332l-.472-.006c-2.007-.048-3.521-.418-5.092-1.326l-.34-.205v-2.858c0-.804 3.367-2.562 5.904-2.562l.275.006z"/>
            <path d="M23.97 20.17c-2.521 0-4.77 1.976-4.77 4.382v2.715c0 2.408 2.248 4.384 4.77 4.384 2.52 0 4.769-1.976 4.769-4.384v-2.715c0-2.406-2.249-4.382-4.77-4.382zm0 1.777c1.586 0 2.992 1.235 2.992 2.605v2.715c0 1.371-1.405 2.607-2.993 2.607-1.587 0-2.992-1.236-2.992-2.607v-2.715c0-1.37 1.405-2.605 2.992-2.605z"/>
        </g>
    </g>
</svg>
