<svg xmlns="http://www.w3.org/2000/svg" width="77" height="77" viewBox="0 0 77 77">
    <g fill="none" fill-rule="evenodd">
        <path fill="#FB7870" d="M77.277 38.64c0 21.339-17.3 38.637-38.638 38.637C17.3 77.277 0 59.979 0 38.639S17.3 0 38.64 0c21.337 0 38.637 17.3 38.637 38.64"/>
        <g fill="#171B23" fill-rule="nonzero">
            <path d="M50.9 14.808H26.39a5.33 5.33 0 0 0-5.33 5.33v34.05a5.33 5.33 0 0 0 5.33 5.332H50.9a5.33 5.33 0 0 0 5.33-5.331v-34.05a5.33 5.33 0 0 0-5.33-5.331zm-24.51 1.777H50.9a3.554 3.554 0 0 1 3.554 3.554v34.05a3.554 3.554 0 0 1-3.554 3.554H26.39a3.554 3.554 0 0 1-3.554-3.554v-34.05a3.554 3.554 0 0 1 3.554-3.554z"/>
            <path d="M54.15 57.743c.44 0 .807.322.876.744l.012.144v2.386a2.08 2.08 0 0 1-1.88 2.072l-.2.01h-5.965a2.081 2.081 0 0 1-2.071-1.882l-.01-.2V58.63a.888.888 0 0 1 1.765-.144l.012.144v2.386c0 .14.095.259.223.294l.08.01h5.965c.14 0 .258-.093.293-.223l.01-.081V58.63c0-.49.399-.888.89-.888zM31.489 57.743c.442 0 .808.322.877.744l.011.144v2.386a2.081 2.081 0 0 1-1.88 2.072l-.2.01h-5.965a2.08 2.08 0 0 1-2.07-1.882l-.01-.2V58.63a.888.888 0 0 1 1.765-.144l.012.144v2.386c0 .141.094.259.223.294l.08.01h5.965c.14 0 .257-.094.293-.223l.01-.081V58.63c0-.49.398-.888.889-.888zM55.342 42.24a.888.888 0 0 1 .144 1.765l-.144.011H21.948a.888.888 0 0 1-.145-1.765l.145-.011h33.394zM31.489 48.202a.888.888 0 0 1 .144 1.765l-.144.012h-5.963a.888.888 0 0 1-.144-1.766l.144-.011h5.963zM51.764 48.202a.888.888 0 0 1 .144 1.765l-.144.012h-5.963a.888.888 0 0 1-.144-1.766l.144-.011h5.963zM55.342 21.964a.888.888 0 0 1 .144 1.766l-.144.011H21.948a.888.888 0 0 1-.145-1.765l.145-.012h33.394z"/>
            <path d="M21.414 23.334a.888.888 0 0 1 1.175 1.325l-.108.096-4.417 3.311v6.712a.889.889 0 0 1-.743.877l-.145.012a.889.889 0 0 1-.876-.745l-.012-.144v-7.155c0-.233.091-.454.251-.619l.104-.091 4.771-3.58zM54.631 23.511a.889.889 0 0 1 1.122-.255l.122.078 4.771 3.579c.187.14.31.346.345.572l.01.138v7.155a.888.888 0 0 1-1.765.144l-.011-.144-.002-6.712-4.414-3.311a.889.889 0 0 1-.255-1.122l.077-.122zM38.645 21.964c.442 0 .808.322.877.745l.012.144v20.274a.888.888 0 0 1-1.766.145l-.011-.145V22.853c0-.491.397-.889.888-.889z"/>
        </g>
    </g>
</svg>
