<svg xmlns="http://www.w3.org/2000/svg" width="77" height="77" viewBox="0 0 77 77">
    <g fill="none" fill-rule="evenodd">
        <path fill="#FFA43E" d="M77.277 38.64c0 21.339-17.3 38.637-38.638 38.637C17.3 77.277 0 59.979 0 38.639S17.3 0 38.64 0c21.337 0 38.637 17.3 38.637 38.64"/>
        <g fill="#171B23" fill-rule="nonzero">
            <path d="M42.338 49l-4.133 4.135a.888.888 0 0 0 0 1.257l2.094 2.094a3.224 3.224 0 0 0 4.557 0l4.43-4.43a.888.888 0 0 0 0-1.257l-1.795-1.798a3.645 3.645 0 0 0-5.153 0zm5.063 2.426L43.6 55.229l-.137.12c-.566.44-1.386.4-1.908-.12l-1.466-1.467 3.505-3.505a1.868 1.868 0 0 1 2.64 0l1.167 1.169z"/>
            <path d="M52.487 51.2a5.83 5.83 0 0 1 5.824 5.532l.008.3v3.47a.888.888 0 0 1-1.766.143l-.011-.144v-3.47a4.054 4.054 0 0 0-3.807-4.046l-.248-.008h-4.49a.888.888 0 0 1-.145-1.765l.144-.011h4.491zM43.204 45.255c.442 0 .808.322.877.744l.011.144v3.25a.888.888 0 0 1-1.765.145l-.012-.145v-3.25c0-.49.398-.888.889-.888zM30.08 49.001L28.281 50.8a.888.888 0 0 0 0 1.256l4.432 4.43a3.224 3.224 0 0 0 4.556.002l2.095-2.095a.888.888 0 0 0 0-1.257l-4.135-4.134a3.643 3.643 0 0 0-5.15 0zm7.4 4.763l-1.466 1.465-.136.12c-.568.44-1.387.4-1.908-.12l-3.804-3.803 1.17-1.168a1.866 1.866 0 0 1 2.638 0l3.506 3.506z"/>
            <path d="M29.573 51.2a.888.888 0 0 1 .144 1.766l-.144.011h-4.492a4.055 4.055 0 0 0-4.047 3.808l-.008.247v3.47a.888.888 0 0 1-1.765.143l-.012-.144v-3.47c0-3.12 2.45-5.667 5.532-5.823l.3-.007h4.492zM34.366 45.255c.441 0 .808.322.877.744l.011.144v3.25a.888.888 0 0 1-1.765.145l-.012-.145v-3.25c0-.49.398-.888.889-.888zM32.571 14.617l-.064.04c-.359.212-.897.59-1.412 1.048-.75.666-1.312 1.371-1.598 2.133l-.094.288c-.061.22-.159.386-.282.492l-.324.292c-1.064.999-1.982 2.268-2.524 3.808l-.025.08h-.004c-.24.937-.385 1.828-.455 2.635-.019.214-.03.4-.036.555l-.005.197c0 1.245.04 2.42.121 3.532a.888.888 0 0 0 1.37.682l.368-.244c1.936-1.302 3.413-2.685 4.061-4.162l.068-.173.073.044a23.951 23.951 0 0 0 4.942 2.12l.582.168c3.106.853 6.241 1.01 9.295.256l.124-.034.14.249c.892 1.532 2.046 2.809 3.498 3.32a.888.888 0 0 0 1.178-.745c.166-1.565.25-3.233.25-5.002l-.01-.368a14.656 14.656 0 0 0-.191-1.652c-.252-1.487-.704-2.975-1.412-4.372-1.983-3.912-5.537-6.328-10.914-6.471l-.509-.007c-2.348 0-4.388.43-6.129 1.247l-.25.176c.08-.074.08-.074.168-.132zm6.214.486c4.968 0 8.084 2.05 9.835 5.504.62 1.224 1.021 2.543 1.245 3.865.078.462.128.89.155 1.273l.022.45-.01 1.013a47.251 47.251 0 0 1-.077 1.951l-.034.449-.08-.068c-.658-.604-1.258-1.47-1.727-2.387a1.199 1.199 0 0 0-1.396-.608c-3.07.877-6.266.703-9.452-.262-2.147-.65-3.986-1.556-5.355-2.434-.626-.415-1.451-.068-1.647.626l-.07.35c-.24.978-1.23 2.094-2.637 3.176l-.003-.062a49.693 49.693 0 0 1-.025-1.152l-.003-.627.01-.246c.005-.097.013-.206.023-.328l.046-.437c.054-.447.133-.92.242-1.413l.098-.426c.483-1.364 1.352-2.494 2.336-3.346.406-.349.683-.821.834-1.362l.07-.203c.313-.75 1.19-1.55 2.038-2.096l.223-.139-.038.017c1.497-.702 3.28-1.078 5.377-1.078z"/>
            <path d="M30.264 24.472l-.03.143c-.18 1.301-1.782 2.878-3.963 4.293a.888.888 0 0 0-.403.806l.057.74.045.48.136-.038a2.052 2.052 0 0 0-1.52 2.48l1.115 4.645.056.19a2.058 2.058 0 0 0 2.229 1.364l.035-.007.078.19c1.557 3.594 3.775 6.026 6.39 7.48 1.752.974 3.496 1.38 4.325 1.358 1.08-.046 2.64-.43 4.383-1.425l.365-.216c2.411-1.483 4.456-3.838 5.914-7.216l.07-.171-.15-.028a2.05 2.05 0 0 0 2.47-1.52l1.12-4.646.037-.195a2.055 2.055 0 0 0-1.37-2.228l-.102-.031-.005-.032a.889.889 0 0 0-.567-.622c-1.089-.383-2.133-1.685-2.864-3.113a1.203 1.203 0 0 0-1.399-.607c-3.068.876-6.264.702-9.45-.263a22.016 22.016 0 0 1-4.961-2.188l-.383-.239a1.095 1.095 0 0 0-1.658.616zm1.404 1.52l.068-.172.08.049a23.966 23.966 0 0 0 4.935 2.115l.582.168c3.107.853 6.242 1.01 9.296.256l.125-.035.142.255c.699 1.201 1.56 2.246 2.601 2.886l.233.133-.001.03a.889.889 0 0 0 1.041.985l.124-.033a.27.27 0 0 1 .086-.016l.073.012c.148.035.24.185.205.334l-1.12 4.647a.275.275 0 0 1-.334.204.248.248 0 0 1-.122-.064.888.888 0 0 0-1.45.327c-1.395 3.731-3.46 6.154-5.915 7.555a9.792 9.792 0 0 1-2.509 1.015c-.486.12-.85.169-1.056.178l-.289-.037a8.555 8.555 0 0 1-.603-.117 9.7 9.7 0 0 1-2.507-.982c-2.496-1.388-4.6-3.824-6.016-7.61a.888.888 0 0 0-1.447-.33.28.28 0 0 1-.462-.141l-1.115-4.646a.275.275 0 0 1 .201-.333l.074-.012.04.004.042.01a.888.888 0 0 0 1.17-.949l-.078-.681-.035-.346-.047-.547.284-.194c1.76-1.23 3.096-2.533 3.704-3.918zM26.268 22.722a.888.888 0 0 1 1.674.594 6.524 6.524 0 0 0-.38 2.195.888.888 0 1 1-1.776 0c0-.972.168-1.904.482-2.79z"/>
        </g>
    </g>
</svg>
