<?xml version="1.0" encoding="UTF-8"?>
<svg width="1321px" height="348px" viewBox="0 0 1321 348" version="1.1" xmlns="http://www.w3.org/2000/svg" xmlns:xlink="http://www.w3.org/1999/xlink">
    <!-- Generator: Sketch 60.1 (88133) - https://sketch.com -->
    <title>Group 30</title>
    <desc>Created with Sketch.</desc>
    <defs>
        <rect id="path-1" x="0" y="0" width="472" height="280"></rect>
        <rect id="path-3" x="0" y="0" width="472" height="280"></rect>
        <rect id="path-5" x="0" y="0" width="472" height="280"></rect>
    </defs>
    <g id="Designs" stroke="none" stroke-width="1" fill="none" fill-rule="evenodd">
        <g id="About_Master" transform="translate(-280.000000, -5251.000000)">
            <g id="Group-30" transform="translate(194.000000, 5251.000000)">
                <g id="Group-4-Copy-9" transform="translate(236.000000, 208.000000) rotate(-180.000000) translate(-236.000000, -208.000000) translate(0.000000, 68.000000)">
                    <mask id="mask-2" fill="white">
                        <use xlink:href="#path-1"></use>
                    </mask>
                    <g id="Mask"></g>
                    <g id="Group-4" mask="url(#mask-2)">
                        <g transform="translate(394.500000, -65.500000) rotate(-180.000000) translate(-394.500000, 65.500000) translate(0.000000, -411.000000)">
                            <g transform="translate(-0.000000, -0.000000)">
                                <path d="M536.740241,148.721392 C535.349846,148.73361 533.963116,149.268753 532.902604,150.330487 L0.278607869,682.953261 L8.04551679,690.721392 L540.670734,158.097396 C541.723916,157.044215 542.260281,155.668481 542.278608,154.28786 L542.278608,154.138802 C542.260281,152.758181 541.723916,151.383669 540.670734,150.330487 C539.610222,149.268753 538.22227,148.73361 536.831875,148.721392 L536.740241,148.721392 Z" id="Fill-1" fill="#9BDC50"></path>
                                <path d="M701.584402,134.728504 C700.194006,134.740721 698.807277,135.275865 697.746764,136.337599 L165.122768,668.960373 L172.889677,676.728504 L705.514895,144.104508 C706.568076,143.051326 707.104442,141.675592 707.122768,140.294972 L707.122768,140.145913 C707.104442,138.765292 706.568076,137.390781 705.514895,136.337599 C704.454383,135.275865 703.066431,134.740721 701.676036,134.728504 L701.584402,134.728504 Z" id="Fill-1-Copy" fill="#FF7A72"></path>
                                <path d="M782.564632,0.74827285 C781.174237,0.760490735 779.787507,1.29563406 778.726995,2.35736819 L246.102999,534.980142 L253.869908,542.748273 L786.495126,10.1242771 C787.548307,9.0710955 788.084672,7.69536175 788.102999,6.31474085 L788.102999,6.16568266 C788.084672,4.78506176 787.548307,3.4105498 786.495126,2.35736819 C785.434613,1.29563406 784.046662,0.760490735 782.656266,0.74827285 L782.564632,0.74827285 Z" id="Fill-1-Copy-2" fill="#FFA43E"></path>
                            </g>
                        </g>
                    </g>
                </g>
                <g id="Group-4-Copy-15" transform="translate(797.000000, 0.000000)">
                    <mask id="mask-4" fill="white">
                        <use xlink:href="#path-3"></use>
                    </mask>
                    <g id="Mask"></g>
                    <g id="Group-4" mask="url(#mask-4)">
                        <g transform="translate(287.011454, -60.011454) rotate(-180.000000) translate(-287.011454, 60.011454) translate(15.511454, -331.511454)">
                            <g transform="translate(-0.000000, -0.000000)">
                                <path d="M536.584402,0.728503591 C535.194006,0.740721475 533.807277,1.2758648 532.746764,2.33759893 L0.122768425,534.960373 L7.88967735,542.728504 L540.514895,10.1045078 C541.568076,9.05132624 542.104442,7.67559249 542.122768,6.29497159 L542.122768,6.1459134 C542.104442,4.7652925 541.568076,3.39078054 540.514895,2.33759893 C539.454383,1.2758648 538.066431,0.740721475 536.676036,0.728503591 L536.584402,0.728503591 Z" id="Fill-1-Copy" fill="#9BDC50"></path>
                            </g>
                        </g>
                    </g>
                </g>
                <g id="Group-4-Copy-10" transform="translate(1068.000000, 0.000000)">
                    <mask id="mask-6" fill="white">
                        <use xlink:href="#path-5"></use>
                    </mask>
                    <g id="Mask"></g>
                    <g id="Group-4" mask="url(#mask-6)">
                        <g transform="translate(331.500000, -26.000000) rotate(-180.000000) translate(-331.500000, 26.000000) translate(56.000000, -327.000000)">
                            <g transform="translate(-0.000000, 0.000000)">
                                <path d="M537.309059,59.0038465 C535.918663,59.0160644 534.531934,59.5512077 533.471421,60.6129418 L0.847425521,593.235716 L8.61433444,601.003846 L541.239552,68.3798508 C542.292734,67.3266691 542.829099,65.9509354 542.847426,64.5703145 L542.847426,64.4212563 C542.829099,63.0406354 542.292734,61.6661234 541.239552,60.6129418 C540.17904,59.5512077 538.791088,59.0160644 537.400693,59.0038465 L537.309059,59.0038465 Z" id="Fill-1-Copy-2" fill="#FFA43E"></path>
                                <path d="M545.043077,0.269827779 C543.652682,0.282045663 542.265952,0.817188986 541.20544,1.87892311 L8.58144424,534.501697 L16.3483532,542.269828 L548.973571,9.64583203 C550.026752,8.59265043 550.563117,7.21691668 550.581444,5.83629577 L550.581444,5.68723759 C550.563117,4.30661668 550.026752,2.93210472 548.973571,1.87892311 C547.913058,0.817188986 546.525107,0.282045663 545.134712,0.269827779 L545.043077,0.269827779 Z" id="Fill-1-Copy-6" fill="#58C4FC"></path>
                            </g>
                        </g>
                    </g>
                </g>
            </g>
        </g>
    </g>
</svg>