<?xml version="1.0" encoding="UTF-8"?>
<svg width="1920px" height="184px" viewBox="0 0 1920 184" version="1.1" xmlns="http://www.w3.org/2000/svg" xmlns:xlink="http://www.w3.org/1999/xlink">
    <!-- Generator: Sketch 60.1 (88133) - https://sketch.com -->
    <title>Fill 1</title>
    <desc>Created with Sketch.</desc>
    <g id="Designs" stroke="none" stroke-width="1" fill="none" fill-rule="evenodd">
        <g id="About_Master" transform="translate(0.000000, -2390.000000)" fill="#F0F5FB">
            <path d="M0,2392 L1920,2392 L1920,2390 L0,2390 L0,2392 Z M0,2403 L1920,2403 L1920,2401 L0,2401 L0,2403 Z M0,2415 L1920,2415 L1920,2413 L0,2413 L0,2415 Z M0,2426 L1920,2426 L1920,2424 L0,2424 L0,2426 Z M0,2437 L1920,2437 L1920,2435 L0,2435 L0,2437 Z M0,2449 L1920,2449 L1920,2447 L0,2447 L0,2449 Z M0,2460 L1920,2460 L1920,2458 L0,2458 L0,2460 Z M0,2472 L1920,2472 L1920,2470 L0,2470 L0,2472 Z M0,2483 L1920,2483 L1920,2481 L0,2481 L0,2483 Z M0,2494 L1920,2494 L1920,2492 L0,2492 L0,2494 Z M0,2506 L1920,2506 L1920,2504 L0,2504 L0,2506 Z M0,2517 L1920,2517 L1920,2515 L0,2515 L0,2517 Z M0,2528 L1920,2528 L1920,2526 L0,2526 L0,2528 Z M0,2540 L1920,2540 L1920,2538 L0,2538 L0,2540 Z M0,2551 L1920,2551 L1920,2549 L0,2549 L0,2551 Z M0,2563 L1920,2563 L1920,2561 L0,2561 L0,2563 Z M0,2574 L1920,2574 L1920,2572 L0,2572 L0,2574 Z" id="Fill-1"></path>
        </g>
    </g>
</svg>