<svg xmlns="http://www.w3.org/2000/svg" width="34" height="31" viewBox="0 0 34 31">
    <g fill="none" fill-rule="evenodd">
        <path fill="#171B24" d="M12 11.053c1.371 1.607 3.093 2.487 5.177 2.632-.01-.26-.033-.507-.025-.753.036-1.018.829-1.995 1.819-2.25.935-.24 1.758-.032 2.462.63.052.048.094.064.168.047a5.115 5.115 0 0 0 1.376-.52l.126-.064c-.195.59-.55 1.024-1.038 1.364.47-.041.913-.176 1.344-.355l.027.03c-.2.234-.39.478-.603.7-.17.177-.368.331-.558.49-.058.048-.084.094-.082.171a7.272 7.272 0 0 1-1.353 4.434c-1.091 1.554-2.578 2.512-4.45 2.851a7.26 7.26 0 0 1-3.864-.324 7.089 7.089 0 0 1-1.302-.638l-.053-.044c1.375.125 2.595-.209 3.697-1.041-1.153-.1-1.922-.674-2.351-1.756.387.05.747.055 1.127-.052-.598-.143-1.08-.433-1.449-.896a2.48 2.48 0 0 1-.553-1.607c.354.181.708.293 1.129.308-.552-.402-.905-.902-1.046-1.535A2.501 2.501 0 0 1 12 11.053"/>
        <circle cx="17.5" cy="15.5" r="14.5" stroke="#171B24"/>
    </g>
</svg>
