<?xml version="1.0" encoding="UTF-8"?>
<svg width="17px" height="14px" viewBox="0 0 17 14" version="1.1" xmlns="http://www.w3.org/2000/svg" xmlns:xlink="http://www.w3.org/1999/xlink">
    <!-- Generator: Sketch 62 (91390) - https://sketch.com -->
    <title>Fill 1</title>
    <desc>Created with Sketch.</desc>
    <g id="Symbols" stroke="none" stroke-width="1" fill="none" fill-rule="evenodd">
        <g id="Components/Footer" transform="translate(-1392.000000, -357.000000)" fill="#FFFFFF">
            <path d="M1408.42951,358.628237 C1407.90551,358.865237 1407.32851,359.009237 1406.76351,359.104237 C1407.03251,359.059237 1407.42751,358.573237 1407.58551,358.376237 C1407.82651,358.077237 1408.02751,357.735237 1408.14051,357.366237 C1408.15451,357.337237 1408.16551,357.301237 1408.13751,357.279237 C1408.10051,357.265237 1408.07751,357.272237 1408.04851,357.287237 C1407.41751,357.625237 1406.76451,357.870237 1406.07051,358.044237 C1406.01251,358.058237 1405.96951,358.044237 1405.93351,358.008237 C1405.87551,357.943237 1405.82251,357.881237 1405.76051,357.831237 C1405.46851,357.583237 1405.15551,357.387237 1404.80251,357.244237 C1404.33851,357.054237 1403.83151,356.974237 1403.33151,357.007237 C1402.84651,357.038237 1402.36851,357.175237 1401.93751,357.401237 C1401.50551,357.627237 1401.11951,357.941237 1400.81251,358.320237 C1400.49451,358.712237 1400.26051,359.175237 1400.13951,359.666237 C1400.02451,360.139237 1400.03351,360.607237 1400.10451,361.086237 C1400.11551,361.166237 1400.10851,361.176237 1400.03651,361.166237 C1397.31851,360.761237 1395.06551,359.789237 1393.23751,357.705237 C1393.15751,357.614237 1393.11451,357.614237 1393.04951,357.712237 C1392.24951,358.911237 1392.63751,360.838237 1393.63751,361.786237 C1393.77051,361.912237 1393.90751,362.038237 1394.05451,362.153237 C1394.00151,362.165237 1393.33551,362.092237 1392.74251,361.786237 C1392.66351,361.735237 1392.62351,361.764237 1392.61651,361.855237 C1392.60951,361.984237 1392.62051,362.103237 1392.63851,362.244237 C1392.79151,363.460237 1393.63451,364.585237 1394.78651,365.023237 C1394.92451,365.081237 1395.07551,365.131237 1395.22251,365.156237 C1394.96051,365.214237 1394.68951,365.255237 1393.93651,365.196237 C1393.84251,365.178237 1393.80651,365.225237 1393.84251,365.315237 C1394.40851,366.858237 1395.63151,367.317237 1396.54651,367.579237 C1396.66851,367.601237 1396.79151,367.601237 1396.91451,367.629237 C1396.90751,367.641237 1396.89951,367.641237 1396.89251,367.651237 C1396.58851,368.114237 1395.53651,368.459237 1395.04651,368.630237 C1394.15451,368.941237 1393.18351,369.082237 1392.24251,368.989237 C1392.09151,368.967237 1392.05951,368.968237 1392.01851,368.989237 C1391.97651,369.014237 1392.01251,369.050237 1392.06151,369.089237 C1392.25251,369.216237 1392.44751,369.328237 1392.64551,369.436237 C1393.24351,369.753237 1393.86751,370.005237 1394.52051,370.186237 C1397.88851,371.116237 1401.68351,370.432237 1404.21351,367.919237 C1406.19951,365.945237 1406.89551,363.224237 1406.89551,360.499237 C1406.89551,360.392237 1407.02151,360.333237 1407.09651,360.277237 C1407.61351,359.889237 1408.02451,359.424237 1408.40951,358.905237 C1408.49651,358.789237 1408.49159,358.685237 1408.49159,358.642237 L1408.49159,358.628237 C1408.49159,358.585237 1408.49651,358.597237 1408.42951,358.628237" id="Fill-1"></path>
        </g>
    </g>
</svg>