<?xml version="1.0" encoding="UTF-8"?>
<svg width="155px" height="40px" viewBox="0 0 155 40" version="1.1" xmlns="http://www.w3.org/2000/svg" xmlns:xlink="http://www.w3.org/1999/xlink">
    <!-- Generator: Sketch 62 (91390) - https://sketch.com -->
    <title>Group 3</title>
    <desc>Created with Sketch.</desc>
    <defs>
        <radialGradient cx="-1.12845185%" cy="28.8712426%" fx="-1.12845185%" fy="28.8712426%" r="113.125982%" gradientTransform="translate(-0.011285,0.288712),scale(1.000000,0.627406),rotate(0.289478),translate(0.011285,-0.288712)" id="radialGradient-1">
            <stop stop-color="#4CBDD8" offset="0%"></stop>
            <stop stop-color="#4BBAD5" offset="20.77%"></stop>
            <stop stop-color="#48B0CC" offset="36.81%"></stop>
            <stop stop-color="#42A0BC" offset="51.27%"></stop>
            <stop stop-color="#3B88A7" offset="64.79%"></stop>
            <stop stop-color="#316A8A" offset="77.67%"></stop>
            <stop stop-color="#254668" offset="89.9%"></stop>
            <stop stop-color="#1A264A" offset="98.98%"></stop>
        </radialGradient>
        <radialGradient cx="48.5856014%" cy="29.2061812%" fx="48.5856014%" fy="29.2061812%" r="74.6648992%" gradientTransform="translate(0.485856,0.292062),scale(1.000000,0.891577),translate(-0.485856,-0.292062)" id="radialGradient-2">
            <stop stop-color="#E30C15" offset="0%"></stop>
            <stop stop-color="#E00C15" offset="22.22%"></stop>
            <stop stop-color="#D60D16" offset="39.54%"></stop>
            <stop stop-color="#C60F18" offset="55.21%"></stop>
            <stop stop-color="#AE121B" offset="69.91%"></stop>
            <stop stop-color="#90151E" offset="83.92%"></stop>
            <stop stop-color="#6C1922" offset="97.25%"></stop>
            <stop stop-color="#631A23" offset="100%"></stop>
        </radialGradient>
    </defs>
    <g id="Symbols" stroke="none" stroke-width="1" fill="none" fill-rule="evenodd">
        <g id="Group-3" fill-rule="nonzero">
            <g id="Group">
                <path d="M10.2,33.9 C16.8,33.9 20.5,27.6 22.1,18.3 C20.4,23.2 19.1,23.2 18.7,23.2 L18.7,23.2 L18.7,23.2 C18.2,23.2 16.5,23.2 14.2,14.9 C13.6,12.6 12.5,8.2 12,5.8 C10.2,-2.6 2.8,-0.9 1.7,5.8 C1.6,6.1 0.6,11.8 1,18.7 C1.1,19.9 1.2,21.1 1.3,22.3 C1.3,22.5 1.4,22.6 1.4,22.8 C1.4,22.9 1.4,23.1 1.5,23.2 L1.5,23.2 C2,26 3.7,33.9 10.2,33.9 Z" id="Path" fill="url(#radialGradient-1)"></path>
                <path d="M35.7,5.7 C34.6,-1 27.2,-2.7 25.4,5.7 C24.9,8.1 23.8,12.5 23.2,14.8 C22.8,16.2 22.5,17.3 22.1,18.3 C20.3,24.1 17.2,33.2 10.6,33.2 C4.1,33.2 2,26 1.4,23.1 L1.4,23.1 C1.7,24.9 2.1,26.7 2.7,28.5 C6.3,39.3 17.6,39.4 18.7,39.4 L18.7,39.4 L18.7,39.4 C19.8,39.4 31.1,39.4 34.7,28.5 C38,18.2 35.8,6.1 35.7,5.7 Z" id="Path" fill="url(#radialGradient-2)"></path>
            </g>
            <g id="Group" transform="translate(44.000000, 4.000000)" fill="#FFFFFF">
                <path d="M16.9,26 L12.7,26 L12.7,22.6 C10,25.2 7.6,26.5 4.9,26.5 C1.4,26.5 -0.2,24.6 0.3,21.4 L2.2,8 L7.6,8 L5.9,19.9 C5.7,21.4 6.1,21.9 7.3,21.9 C8.9,21.9 10.3,21 12.6,19.1 L14.1,8 L19.4,8 L16.9,26 Z" id="Path"></path>
                <path d="M32.7,5.3 L29.8,26 L24.2,26 L27.1,5.3 L19.6,5.3 L20.2,0.8 L40.8,0.8 L40.2,5.3 C40.2,5.3 32.7,5.3 32.7,5.3 Z" id="Path"></path>
                <path d="M51.7,12.5 L50.4,12.5 C48.8,12.5 47.1,13.3 44.4,14.7 L42.9,26 L37.5,26 L40,8 L44.2,8 L44.2,11.4 C46.9,8.8 49.5,7.5 51.9,7.5 L53,7.5 L51.7,12.5 Z" id="Path"></path>
                <path d="M65.3,26 L65.3,22.8 C63.6,25 61.1,26.4 57.9,26.5 C53.3,26.6 51.9,23.7 52.9,16.7 C54.1,8.3 57.6,7.5 62.9,7.5 C65.5,7.5 69.8,8 71.8,8.6 L69.4,26 L65.3,26 Z M63.4,11.4 C60,11.4 59.1,11.9 58.4,16.7 C57.7,21.3 58,22.1 59.8,22 C61.7,22 63.4,20.6 65.2,18.6 L66.2,11.4 C66.2,11.4 63.4,11.4 63.4,11.4 Z" id="Shape"></path>
                <path d="M88.4,25.2 C86.3,26.1 83.7,26.4 81.4,26.4 C75,26.4 72.4,23.7 73.4,16.7 C74.3,10 76.9,7.4 83.3,7.4 C85.5,7.4 88.3,7.7 90.2,8.6 L89.5,11.9 C87.4,11.9 85.4,11.8 84.1,11.8 C80.9,11.8 79.6,12.7 79.1,16.9 C78.6,21.2 79.4,21.9 82.5,21.9 C83.8,21.9 86.2,21.9 88.2,21.6 L88.4,25.2 Z" id="Path"></path>
                <path d="M110.1,8 C109.1,11.8 106.9,14.4 104.2,16.3 C104.9,17 105.3,17.8 105.7,18.6 L109,26 L103.4,26 L100.2,18.6 C99.2,19.1 98.1,19.5 97.1,19.9 L96.2,26 L90.8,26 L94.4,0.4 L99.8,0.4 L98.3,11.4 C98.1,12.9 97.6,14.4 97,15.9 C100.4,14.1 103.8,11.3 104.6,8 C104.6,8 110.1,8 110.1,8 Z" id="Path"></path>
            </g>
        </g>
    </g>
</svg>